<?xml version="1.0" standalone="no"?>
<!DOCTYPE svg PUBLIC "-//W3C//DTD SVG 20010904//EN" "http://www.w3.org/TR/2001/REC-SVG-20010904/DTD/svg10.dtd">
<!-- Created using Krita: https://krita.org -->
<svg xmlns="http://www.w3.org/2000/svg" 
    xmlns:xlink="http://www.w3.org/1999/xlink"
    xmlns:krita="http://krita.org/namespaces/svg/krita"
    xmlns:sodipodi="http://sodipodi.sourceforge.net/DTD/sodipodi-0.dtd"
    width="155.28pt"
    height="195.12pt"
    viewBox="0 0 155.28 195.12">
<defs/>
<path id="shape0161" transform="matrix(-0.607272910208192 0.242743735908321 0.242752801599977 0.60729558988285 105.24316016942 71.6084533205803)" fill="#ffffff" stroke="#000000" stroke-width="0.48" stroke-linecap="square" stroke-linejoin="bevel" d="M4.70806 0.0186149C5.94266 0.0286452 7.86157 -0.140963 8.72595 0.380416C10.4084 1.4714 8.16515 2.22791 9.08435 3.80868C10.3729 5.25402 7.6959 6.00798 4.70806 5.92851C1.72021 6.00798 -0.956751 5.25402 0.331764 3.80868C1.25096 2.22791 -0.992259 1.4714 0.690168 0.380416C1.55454 -0.140963 3.47346 0.0286452 4.70806 0.0186149Z" sodipodi:nodetypes="ccccccc"/><path id="shape01611" transform="matrix(-0.607272910208192 0.242743735908321 0.242752801599977 0.60729558988285 101.738312940817 58.1598274279256)" fill="#ffffff" stroke="#000000" stroke-width="0.48" stroke-linecap="square" stroke-linejoin="bevel" d="M4.70806 0.0186149C5.94266 0.0286452 7.86157 -0.140963 8.72595 0.380416C10.4084 1.4714 8.16515 2.22791 9.08435 3.80868C10.3729 5.25402 7.6959 6.00798 4.70806 5.92851C1.72021 6.00798 -0.956751 5.25402 0.331764 3.80868C1.25096 2.22791 -0.992259 1.4714 0.690168 0.380416C1.55454 -0.140963 3.47346 0.0286452 4.70806 0.0186149Z" sodipodi:nodetypes="ccccccc"/><path id="shape01612" transform="matrix(-0.611886666660336 0.230867095877171 0.230875718014821 0.611909518643841 95.0926949681837 51.0269251402099)" fill="#ffffff" stroke="#000000" stroke-width="0.48" stroke-linecap="square" stroke-linejoin="bevel" d="M4.70806 0.0186149C5.94266 0.0286452 7.86157 -0.140963 8.72595 0.380416C10.4084 1.4714 8.16515 2.22791 9.08435 3.80868C10.3729 5.25402 7.6959 6.00798 4.70806 5.92851C1.72021 6.00798 -0.956751 5.25402 0.331764 3.80868C1.25096 2.22791 -0.992259 1.4714 0.690168 0.380416C1.55454 -0.140963 3.47346 0.0286452 4.70806 0.0186149Z" sodipodi:nodetypes="ccccccc"/><path id="shape16" transform="matrix(0.577665368356757 -0.306606638866004 0.306618089630068 0.577686942285703 95.6585279634485 39.0163381901577)" fill="#ffffff" fill-rule="evenodd" stroke="#000000" stroke-width="0.48" stroke-linecap="square" stroke-linejoin="bevel" d="M36.5546 6.71825C24.1689 9.38084 27.5755 18.7442 31.9642 19.8215C35.7966 20.7623 35.0927 22.7453 27.7741 26.0529C21.5786 28.8528 20.0653 48.0828 15.5918 53.9861C-1.47848 76.5122 -0.366369 19.0858 0.313423 8.9929C1.10405 -2.74557 9.2719 -0.705856 14.3099 2.43798C22.0903 7.29312 24.8884 1.96595 32.6768 1.38158C46.9761 0.308687 42.5606 5.4271 36.5546 6.71825Z" sodipodi:nodetypes="csssssss"/><path id="shape35" transform="matrix(-0.607787223273273 0.241453101080152 0.241462118570781 0.607809922155856 79.8877935760313 50.4751241271263)" fill="#ffffff" fill-rule="evenodd" stroke="#000000" stroke-width="0.48" stroke-linecap="square" stroke-linejoin="bevel" d="M33.7494 6.71825C22.3142 9.38084 25.4594 18.7442 29.5113 19.8215C33.0496 20.7623 32.3997 22.7453 25.6427 26.0529C19.9227 28.8528 18.5255 48.0828 14.3953 53.9861C-1.36502 76.5122 -0.338254 19.0858 0.289371 8.9929C1.01933 -2.74557 8.56038 -0.705856 13.2118 2.43798C20.3951 7.29312 22.9785 1.96595 30.1692 1.38158C43.3712 0.308687 39.2945 5.4271 33.7494 6.71825Z" sodipodi:nodetypes="csssssss"/><path id="shape01613" transform="matrix(-0.548200080862617 0.356625265702917 0.356638584500552 0.548220554358589 93.1554315261453 42.8669061705864)" fill="#ffffff" stroke="#000000" stroke-width="0.48" stroke-linecap="square" stroke-linejoin="bevel" d="M4.70806 0.0186149C5.94266 0.0286452 7.86157 -0.140963 8.72595 0.380416C10.4084 1.4714 8.16515 2.22791 9.08435 3.80868C10.3729 5.25402 7.6959 6.00798 4.70806 5.92851C1.72021 6.00798 -0.956751 5.25402 0.331764 3.80868C1.25096 2.22791 -0.992259 1.4714 0.690168 0.380416C1.55454 -0.140963 3.47346 0.0286452 4.70806 0.0186149Z" sodipodi:nodetypes="ccccccc"/><path id="shape0311" transform="matrix(0.611886666660336 -0.230867095877171 0.230875718014821 0.611909518643841 100.876319263652 78.9869847526759)" fill="#ffffff" stroke="#000000" stroke-width="0.48" stroke-linecap="square" stroke-linejoin="bevel" d="M3.80536 0C2.03184 0.31769 1.68118 0.974411 3.16082 2.4565C13.42 7.07084 46.6942 18.5725 31.53 25.9984C18.0069 32.6207 8.35574 9.64076 1.82892 2.44981C1.70419 1.06311 0.903233 0.817471 0 5.18353C2.97479 8.79686 20.3255 42.5987 36.615 35.0164C61.8608 23.2652 29.9328 5.44782 3.80536 0Z" sodipodi:nodetypes="ccsccsc"/><path id="shape0511" transform="matrix(0.611886666660336 -0.230867095877171 0.230875718014821 0.611909518643841 98.8151600929616 67.9412916549258)" fill="#ffffff" stroke="#000000" stroke-width="0.48" stroke-linecap="square" stroke-linejoin="bevel" d="M2.21238 0C0.438858 0.31769 0.550603 2.89114 2.03024 4.37323C14.3002 4.09695 55.5779 16.8494 21.1992 23.2608C9.0084 25.5344 5.05005 15.6306 1.50047 12.7166C1.37574 11.3299 -1.3512 14.6046 0.865095 18.2314C3.78637 21.7286 11.788 35.4898 25.2331 31.6196C66.2532 19.8118 29.0259 1.86655 2.21238 0Z" sodipodi:nodetypes="ccsccsc"/><path id="shape072" transform="matrix(0.611886666660336 -0.230867095877171 0.230875718014821 0.611909518643841 95.0820093652145 57.5308099139717)" fill="#ffffff" fill-rule="evenodd" stroke="#000000" stroke-width="0.48" stroke-linecap="square" stroke-linejoin="bevel" d="M1.34296 0C-0.43055 0.31769 -0.322661 1.04845 1.15698 2.53054C13.3895 4.02735 54.5672 11.3252 13.8708 19.187C8.2474 20.2733 4.86778 18.4664 0.853739 16.2104C1.03007 17.0228 -1.10813 20.5409 0.792448 21.8617C4.38987 24.513 10.5275 26.9248 18.1188 25.5829C62.4651 17.7442 28.0274 0.0430358 1.34296 0Z" sodipodi:nodetypes="ccsccsc"/><path id="shape092" transform="matrix(0.611886666660336 -0.230867095877171 0.230875718014821 0.611909518643841 91.4362380532019 48.7130488655016)" fill="#ffffff" fill-rule="evenodd" stroke="#000000" stroke-width="0.48" stroke-linecap="square" stroke-linejoin="bevel" d="M3.19012 0C1.70369 0.256479 1.82938 2.12751 3.06951 3.32404C19.2491 7.45315 42.944 15.4737 2.15974 13.4205C0.952878 13.8517 -2.15367 17.8865 2.39877 19.8028C42.9851 25.7512 44.0016 5.89556 3.19012 0Z" sodipodi:nodetypes="ccccc"/><path id="shape410" transform="matrix(0.611886666660336 -0.230867095877171 0.230875718014821 0.611909518643841 91.0215933295474 43.8761498011045)" fill="#ffffff" fill-rule="evenodd" stroke="#000000" stroke-width="0.48" stroke-linecap="square" stroke-linejoin="bevel" d="M1.21553 0C-0.270901 0.256479 -0.394051 0.982981 0.846076 2.17951C10.6443 0.969085 23.1882 12.1634 0.5009 11.6277C0.48891 12.9118 1.45769 15.8043 1.44569 17.0884C30.836 18.6355 24.2489 0.189562 1.21553 0Z" sodipodi:nodetypes="ccccc"/><path id="shape51" transform="matrix(0.611886666660336 -0.230867095877171 0.230875718014821 0.611909518643841 88.5251248532303 37.7312154864083)" fill="#ffffff" fill-rule="evenodd" stroke="#000000" stroke-width="0.48" stroke-linecap="square" stroke-linejoin="bevel" d="M2.52405 11.5998C2.05296 12.7045 1.45893 15.4671 1.06431 15.7917C-2.26673 18.5319 3.1646 16.4 4.50161 16.2039C32.1379 12.1494 30.4795 3.69968 51.2022 6.13768C55.2467 6.61351 56.5426 1.99041 53.3762 1.33306C35.9818 -2.27807 33.3808 1.61915 10.5526 10.944C9.31015 11.4515 5.50095 13.6021 2.52405 11.5998Z" sodipodi:nodetypes="csssssc"/><path id="shape0312" transform="matrix(-0.611886666660336 0.230867095877171 0.230875718014821 0.611909518643841 96.1070856869162 80.4209232990055)" fill="#ffffff" stroke="#000000" stroke-width="0.48" stroke-linecap="square" stroke-linejoin="bevel" d="M2.26758 0.158667C0.627905 0.476357 -0.113214 -0.721309 1.25476 0.760778C11.1615 6.39145 43.6871 24.8298 24.7821 29.9576C13.002 33.1529 8.15524 10.7428 1.97785 3.64308C1.86253 2.25638 0.835068 2.50035 0 6.86641C2.75029 10.4797 10.8417 42.882 25.9018 35.2997C49.2424 23.5485 26.4232 5.60649 2.26758 0.158667Z" sodipodi:nodetypes="ccsccsc"/><path id="shape0512" transform="matrix(-0.611886666660336 0.230867095877171 0.230875718014821 0.611909518643841 93.4906189502433 69.0390410947637)" fill="#ffffff" stroke="#000000" stroke-width="0.48" stroke-linecap="square" stroke-linejoin="bevel" d="M3.68065 0C1.95819 0.31769 -1.0605 4.17569 0.376526 5.65778C12.6997 4.31294 59.9529 20.0567 24.6648 23.1425C14.8017 24.005 12.0047 16.5748 8.41641 13.8062C8.29528 12.4195 5.3678 17.6659 7.52026 21.2927C10.3574 24.7899 18.2225 31.5998 31.3626 28.0367C61.9801 19.7344 28.742 2.25017 3.68065 0Z" sodipodi:nodetypes="ccsccsc"/><path id="shape073" transform="matrix(-0.611886666660336 0.230867095877171 0.230875718014821 0.611909518643841 91.3739684213453 58.929867436792)" fill="#ffffff" fill-rule="evenodd" stroke="#000000" stroke-width="0.48" stroke-linecap="square" stroke-linejoin="bevel" d="M1.21431 0C-0.425774 0.31769 -0.326002 1.04845 1.04232 2.53054C12.3545 4.02735 54.3865 12.0427 16.7519 19.9045C11.5516 20.9908 13.12 20.1183 9.13464 19.2498C9.09163 20.3232 7.08205 21.7771 8.83964 23.0979C12.1664 25.7492 13.4261 26.6606 20.4462 25.3187C61.4561 17.48 25.8911 0.0430358 1.21431 0Z" sodipodi:nodetypes="ccsccsc"/><path id="shape093" transform="matrix(-0.611886666660336 0.230867095877171 0.230875718014821 0.611909518643841 87.0425848275613 50.3707904306694)" fill="#ffffff" fill-rule="evenodd" stroke="#000000" stroke-width="0.48" stroke-linecap="square" stroke-linejoin="bevel" d="M1.12761 0C-0.358823 0.256479 -0.32082 1.71994 0.91931 2.91646C15.7371 6.27411 44.1459 13.6505 6.74653 13.1504C4.85775 13.5489 3.41275 17.6684 8.34827 19.8393C42.5989 21.0701 40.4856 4.81327 1.12761 0Z" sodipodi:nodetypes="ccccc"/><path id="shape411" transform="matrix(-0.611886666660336 0.230867095877171 0.230875718014821 0.611909518643841 85.0714428629599 46.0149835847879)" fill="#ffffff" fill-rule="evenodd" stroke="#000000" stroke-width="0.48" stroke-linecap="square" stroke-linejoin="bevel" d="M1.21553 0C-0.270901 0.256479 -0.394051 0.982981 0.846076 2.17951C10.6443 0.969085 26.6618 12.8268 3.97453 12.2911C3.71855 13.673 5.63786 15.5822 6.34592 16.4789C29.1705 17.5149 23.0603 0.0970298 1.21553 0Z" sodipodi:nodetypes="ccccc"/><path id="shape52" transform="matrix(-0.564206042459355 0.33072110674677 0.33073345810804 0.564227113726108 83.7548233451357 43.3075174430378)" fill="#ffffff" fill-rule="evenodd" stroke="#000000" stroke-width="0.48" stroke-linecap="square" stroke-linejoin="bevel" d="M2.5029 7.21328C2.06779 8.31797 1.66798 9.03262 1.3035 9.35725C-1.77314 12.0974 1.39747 13.5671 2.64906 13.5473C25.4092 13.1875 28.7781 2.64428 52.4362 4.99897C56.5894 5.41233 55.595 0.803794 52.6229 0.385479C37.3634 -1.76232 30.7271 5.56441 8.51268 10.0274C7.27572 10.2759 5.25244 9.21551 2.5029 7.21328Z" sodipodi:nodetypes="csssssc"/><path id="shape61" transform="matrix(-0.611886666660336 0.230867095877171 0.230875718014821 0.611909518643841 93.2894888341126 50.0914222672321)" fill="#ffffff" fill-rule="evenodd" stroke="#000000" stroke-width="0.48" stroke-linecap="square" stroke-linejoin="bevel" d="M9.28188 52.4829C12.1436 48.8085 14.2883 47.0281 15.7159 47.1418C15.4293 45.8501 15.3542 40.9095 17.0288 40.8897C15.4584 39.0821 16.6885 36.241 16.0584 35.4785C13.9611 32.9406 15.5179 30.4687 16.6174 28.4281C17.2354 27.281 16.3741 22.6445 14.0334 14.5184C13.1632 10.4174 12.8265 7.42471 14.1373 6.87456L12.6651 2.92186C11.0372 2.77369 11.2378 2.16995 9.02029 0L1.82107 0.870127C-0.396496 3.04008 2.14844 3.73691 0.520584 3.88508L0 8.8084C1.31083 9.35855 3.62878 11.2882 2.75862 15.3891C1.34102 20.8909 0.941241 24.2153 1.55927 25.3624C2.6587 27.403 3.91796 30.8821 1.82066 33.42C1.19053 34.1825 3.17316 39.2364 1.60279 41.044C3.27733 41.0638 3.13451 45.8501 2.84792 47.1418C4.27546 47.0281 6.42012 48.8085 9.28188 52.4829Z" sodipodi:nodetypes="cccssccccccccssccc"/><path id="shape01614" transform="matrix(-0.418549163147059 0.502515180690448 0.502533948003489 0.418564794601531 87.6309769298007 37.608782739175)" fill="#ffffff" stroke="#000000" stroke-width="0.48" stroke-linecap="square" stroke-linejoin="bevel" d="M4.70806 0.0186149C5.94266 0.0286452 7.86157 -0.140963 8.72595 0.380416C10.4084 1.4714 8.16515 2.22791 9.08435 3.80868C10.3729 5.25402 7.6959 6.00798 4.70806 5.92851C1.72021 6.00798 -0.956751 5.25402 0.331764 3.80868C1.25096 2.22791 -0.992259 1.4714 0.690168 0.380416C1.55454 -0.140963 3.47346 0.0286452 4.70806 0.0186149Z" sodipodi:nodetypes="ccccccc"/><path id="shape01615" transform="matrix(-0.384217481105989 0.529227584322687 0.529247349257413 0.384231830383427 81.6804517740011 35.1687006159001)" fill="#ffffff" stroke="#000000" stroke-width="0.48" stroke-linecap="square" stroke-linejoin="bevel" d="M4.70806 0.0186149C5.94266 0.0286452 7.86157 -0.140963 8.72595 0.380416C10.4084 1.4714 8.16515 2.22791 9.08435 3.80868C10.3729 5.25402 7.6959 6.00798 4.70806 5.92851C1.72021 6.00798 -0.956751 5.25402 0.331764 3.80868C1.25096 2.22791 -0.992259 1.4714 0.690168 0.380416C1.55454 -0.140963 3.47346 0.0286452 4.70806 0.0186149Z" sodipodi:nodetypes="ccccccc"/><path id="shape01616" transform="matrix(-0.214727716750801 0.617735312617342 0.617758383028813 0.214735736134959 75.871677239052 33.8416408035348)" fill="#ffffff" stroke="#000000" stroke-width="0.48" stroke-linecap="square" stroke-linejoin="bevel" d="M4.70806 0.0186149C5.94266 0.0286452 7.86157 -0.140963 8.72595 0.380416C10.4084 1.4714 8.16515 2.22791 9.08435 3.80868C10.3729 5.25402 7.6959 6.00798 4.70806 5.92851C1.72021 6.00798 -0.956751 5.25402 0.331764 3.80868C1.25096 2.22791 -0.992259 1.4714 0.690168 0.380416C1.55454 -0.140963 3.47346 0.0286452 4.70806 0.0186149Z" sodipodi:nodetypes="ccccccc"/><path id="shape01617" transform="matrix(-0.607272910208192 0.242743735908321 0.242752801599977 0.60729558988285 106.29100204088 81.5182508348569)" fill="#ffffff" stroke="#000000" stroke-width="0.48" stroke-linecap="square" stroke-linejoin="bevel" d="M4.70806 0.0186149C5.94266 0.0286452 7.86157 -0.140963 8.72595 0.380416C10.4084 1.4714 8.16515 2.22791 9.08435 3.80868C10.3729 5.25402 7.6959 6.00798 4.70806 5.92851C1.72021 6.00798 -0.956751 5.25402 0.331764 3.80868C1.25096 2.22791 -0.992259 1.4714 0.690168 0.380416C1.55454 -0.140963 3.47346 0.0286452 4.70806 0.0186149Z" sodipodi:nodetypes="ccccccc"/><path id="shape01618" transform="matrix(-0.640295041347971 0.133143414484737 0.133148386959668 0.640318954292183 115.858761199092 86.2425603397195)" fill="#ffffff" stroke="#000000" stroke-width="0.48" stroke-linecap="square" stroke-linejoin="bevel" d="M4.70806 0.0186149C5.94266 0.0286452 7.86157 -0.140963 8.72595 0.380416C10.4084 1.4714 8.16515 2.22791 9.08435 3.80868C10.3729 5.25402 7.6959 6.00798 4.70806 5.92851C1.72021 6.00798 -0.956751 5.25402 0.331764 3.80868C1.25096 2.22791 -0.992259 1.4714 0.690168 0.380416C1.55454 -0.140963 3.47346 0.0286452 4.70806 0.0186149Z" sodipodi:nodetypes="ccccccc"/><path id="shape01619" transform="matrix(-0.640295041347972 0.133143414484737 0.133148386959668 0.640318954292183 120.139001710294 94.1215381567395)" fill="#ffffff" stroke="#000000" stroke-width="0.48" stroke-linecap="square" stroke-linejoin="bevel" d="M4.70806 0.0186149C5.94266 0.0286452 7.86157 -0.140963 8.72595 0.380416C10.4084 1.4714 8.16515 2.22791 9.08435 3.80868C10.3729 5.25402 7.6959 6.00798 4.70806 5.92851C1.72021 6.00798 -0.956751 5.25402 0.331764 3.80868C1.25096 2.22791 -0.992259 1.4714 0.690168 0.380416C1.55454 -0.140963 3.47346 0.0286452 4.70806 0.0186149Z" sodipodi:nodetypes="ccccccc"/><path id="shape016110" transform="matrix(-0.640295041347972 0.133143414484737 0.133148386959668 0.640318954292183 122.09588150721 100.729774757543)" fill="#ffffff" stroke="#000000" stroke-width="0.48" stroke-linecap="square" stroke-linejoin="bevel" d="M4.70806 0.0186149C5.94266 0.0286452 7.86157 -0.140963 8.72595 0.380416C10.4084 1.4714 8.16515 2.22791 9.08435 3.80868C10.3729 5.25402 7.6959 6.00798 4.70806 5.92851C1.72021 6.00798 -0.956751 5.25402 0.331764 3.80868C1.25096 2.22791 -0.992259 1.4714 0.690168 0.380416C1.55454 -0.140963 3.47346 0.0286452 4.70806 0.0186149Z" sodipodi:nodetypes="ccccccc"/><path id="shape016111" transform="matrix(-0.640295041347972 0.133143414484737 0.133148386959668 0.640318954292183 123.523322911269 108.466587034024)" fill="#ffffff" stroke="#000000" stroke-width="0.48" stroke-linecap="square" stroke-linejoin="bevel" d="M4.70806 0.0186149C5.94266 0.0286452 7.86157 -0.140963 8.72595 0.380416C10.4084 1.4714 8.16515 2.22791 9.08435 3.80868C10.3729 5.25402 7.6959 6.00798 4.70806 5.92851C1.72021 6.00798 -0.956751 5.25402 0.331764 3.80868C1.25096 2.22791 -0.992259 1.4714 0.690168 0.380416C1.55454 -0.140963 3.47346 0.0286452 4.70806 0.0186149Z" sodipodi:nodetypes="ccccccc"/><path id="shape016112" transform="matrix(-0.640295041347972 0.133143414484737 0.133148386959668 0.640318954292183 124.377634404615 114.420862148341)" fill="#ffffff" stroke="#000000" stroke-width="0.48" stroke-linecap="square" stroke-linejoin="bevel" d="M4.70806 0.0186149C5.94266 0.0286452 7.86157 -0.140963 8.72595 0.380416C10.4084 1.4714 8.16515 2.22791 9.08435 3.80868C10.3729 5.25402 7.6959 6.00798 4.70806 5.92851C1.72021 6.00798 -0.956751 5.25402 0.331764 3.80868C1.25096 2.22791 -0.992259 1.4714 0.690168 0.380416C1.55454 -0.140963 3.47346 0.0286452 4.70806 0.0186149Z" sodipodi:nodetypes="ccccccc"/><path id="shape016113" transform="matrix(-0.640295041347972 0.133143414484737 0.133148386959668 0.640318954292183 124.933815540817 121.088152127523)" fill="#ffffff" stroke="#000000" stroke-width="0.48" stroke-linecap="square" stroke-linejoin="bevel" d="M4.70806 0.0186149C5.94266 0.0286452 7.86157 -0.140963 8.72595 0.380416C10.4084 1.4714 8.16515 2.22791 9.08435 3.80868C10.3729 5.25402 7.6959 6.00798 4.70806 5.92851C1.72021 6.00798 -0.956751 5.25402 0.331764 3.80868C1.25096 2.22791 -0.992259 1.4714 0.690168 0.380416C1.55454 -0.140963 3.47346 0.0286452 4.70806 0.0186149Z" sodipodi:nodetypes="ccccccc"/><path id="shape016114" transform="matrix(-0.652961749640607 -0.0366859959893803 -0.0366873660924107 0.652986135645312 124.98926791183 128.308495194514)" fill="#ffffff" stroke="#000000" stroke-width="0.48" stroke-linecap="square" stroke-linejoin="bevel" d="M5.22155 0.889943C6.45615 0.899973 8.0974 0.768357 8.96178 1.28974C10.6442 2.38072 7.61806 3.34111 8.53726 4.92188C9.82581 6.36722 8.20939 6.87931 5.22155 6.79984C2.2337 6.87931 -0.588179 7.4436 0.700336 5.99826C1.61953 4.41749 -1.12388 1.21456 0.558555 0.123572C1.42292 -0.397807 3.98695 0.899973 5.22155 0.889943Z" sodipodi:nodetypes="ccccccc"/><path id="shape016115" transform="matrix(-0.652961749640607 -0.0366859959893803 -0.0366873660924107 0.652986135645312 124.221909653686 134.604444527911)" fill="#ffffff" stroke="#000000" stroke-width="0.48" stroke-linecap="square" stroke-linejoin="bevel" d="M5.70693 0.813146C6.94153 0.823176 9.87628 -0.053041 10.7407 0.468338C12.4231 1.55932 11.0616 4.83728 10.5308 5.04369C11.8193 6.48903 12.3194 14.1673 9.33151 14.0879C6.34366 14.1673 -1.18621 9.4161 0.266821 7.56467C0.533435 6.53005 -0.824233 1.22111 0.858194 0.130124C1.72257 -0.391255 4.47233 0.823176 5.70693 0.813146Z" sodipodi:nodetypes="ccccccc"/><path id="shape17" transform="matrix(-0.619705952983642 -0.208972344180028 -0.208980148619678 0.619729096992146 65.2316944438057 67.7330553347789)" fill="#ffffff" fill-rule="evenodd" stroke="#000000" stroke-width="0.48" stroke-linecap="square" stroke-linejoin="bevel" d="M18.0945 4.51984C16.6274 -6.5825 -12.1915 5.39734 6.00606 12.4072C12.8448 32.4193 23.5025 69.8948 21.6977 92.754C21.0724 100.674 27.2075 101.708 34.2595 96.761C44.9866 93.6719 46.0613 91.4901 39.6305 84.9715C23.5534 68.6753 20.9255 25.9427 18.0945 4.51984Z" sodipodi:nodetypes="ccscss"/><path id="shape0" transform="matrix(0.990732931199806 -0.135824368344718 0.135824368344718 0.990732931199806 15.7020267247765 113.753255953508)" fill="#ffffff" fill-rule="evenodd" stroke="#000000" stroke-width="0.48" stroke-linecap="square" stroke-linejoin="bevel" d="M3.16231 0.00452639C2.30017 -0.159717 -0.14076 4.19462 0.00637256 5.11889C0.28669 6.87981 3.2935 8.61849 3.78461 8.48972C3.9559 8.44481 4.8553 0.327053 3.16231 0.00452639Z" sodipodi:nodetypes="csss"/><path id="shape19" transform="matrix(0.149948064350198 0.537649409556089 0.588917142628225 -0.16919790436096 17.926055003891 118.783308104574)" fill="#ffffff" fill-rule="evenodd" stroke="#000000" stroke-width="0.48" stroke-linecap="square" stroke-linejoin="bevel" d="M12.8086 6.38103C8.47855 -7.32226 -2.44364 4.66613 0.495055 8.93808C7.97354 19.8095 11.5192 31.3866 14.2674 39.2862C22.919 64.1554 27.2238 64.3962 30.8495 63.8137C32.7686 63.5054 35.3801 61.3335 32.9523 57.5302C31.5413 55.3199 29.7166 54.5095 22.3974 44.3768C10.6765 28.1505 13.5293 8.66183 12.8086 6.38103Z" sodipodi:nodetypes="csssscs"/><path id="shape18" transform="matrix(0.149948064350198 0.537649409556089 0.588917142628225 -0.16919790436096 21.1951297144479 117.475825027259)" fill="#ffffff" fill-rule="evenodd" stroke="#000000" stroke-width="0.48" stroke-linecap="square" stroke-linejoin="bevel" d="M0.00908329 0.145085C1.02282 5.67927 3.32798 17.3005 7.33998 23.2931C14.991 34.721 18.3738 50.8793 24.6246 58.0108C30.5604 64.783 37.8472 49.9319 32.3248 47.6442C28.4612 46.0438 30.8948 47.8726 21.9586 35.7195C16.9115 28.8557 -0.453869 -2.38226 0.00908329 0.145085Z" sodipodi:nodetypes="cssssc"/><path id="shape1" transform="matrix(0.990732931199806 -0.135824368344718 0.135824368344718 0.990732931199806 24.9743715686106 101.158221717161)" fill="#000000" stroke-opacity="0" stroke="#000000" stroke-width="0.48" stroke-linecap="square" stroke-linejoin="bevel" d="M14.775 25.5811L0.0750393 0.119909L14.775 25.5811L14.6967 25.4554L0 0L0.0750393 0.119909L14.775 25.5811L0.0750393 0.119909" sodipodi:nodetypes="cccccccc"/><path id="shape15" transform="matrix(-0.653827556926844 0.0146435855764247 0.0146441324668766 0.653851975266645 147.551826224823 136.347503081307)" fill="#ffffff" fill-rule="evenodd" stroke="#000000" stroke-width="0.48" stroke-linecap="square" stroke-linejoin="bevel" d="M47.0828 44.6984C50.9854 43.996 52.2166 43.7068 55.7491 41.7367C59.3254 39.7423 63.7793 36.0356 69.111 30.6168C63.6144 30.7704 57.5654 27.5197 55.4715 37.1275C54.8149 40.1403 50.1919 38.8763 47.0828 39.2654C43.9737 38.8763 40.7333 39.8757 40.0767 36.8628C37.9828 27.255 35.1415 29.5151 29.6449 29.3616C34.9766 34.7804 36.9537 40.0448 40.53 42.0392C44.0625 44.0094 43.1802 43.996 47.0828 44.6984ZM48.2059 49.7515C66.7576 71.2128 75.6672 52.463 71.9983 41.467C75.5805 40.2494 75.1085 39.0139 75.4928 36.6185C76.2248 34.1261 77.9476 32.5342 78.9508 32.2283C86.5617 29.9072 84.9472 29.3221 83.7415 25.9909C82.4753 22.4927 85.062 20.6079 87.8408 18.6584C106.908 5.28163 81.2356 -6.36344 69.0766 4.30448C66.7184 6.37344 66.2368 7.16944 63.4853 9.70453C61.8832 11.1807 58.3841 13.5257 49.0512 16.8501C39.7183 13.5257 35.5844 11.0124 33.9823 9.53627C31.2308 7.00118 30.7492 6.20518 28.391 4.13621C16.232 -6.5317 -12.7422 5.28163 6.32483 18.6584C9.10363 20.6079 11.6903 22.4927 10.4241 25.9909C9.21843 29.3221 7.60393 29.9072 15.2148 32.2283C16.218 32.5342 17.9408 34.1261 18.6728 36.6185C19.0571 39.0139 18.5851 40.2494 22.1673 41.467C18.4984 52.463 27.408 71.2128 45.9597 49.7515ZM65.6531 41.9212L59.8692 45.397C53.4682 50.5337 58.7524 52.2491 61.2465 52.2208C66.4491 51.018 64.9746 45.9838 65.6531 41.9212ZM29.8411 41.3747L36.3616 45.1952C42.7626 50.3319 37.2364 51.8362 34.7423 51.8079C29.5397 50.6051 30.5196 45.4374 29.8411 41.3747Z" sodipodi:nodetypes="cscscsccccccssssscssssscccccccccccc"/><path id="shape09" transform="matrix(0.636477792733097 -0.150336050743206 -0.15034166530737 -0.636501563115445 125.673454640114 168.612515022464)" fill="#ffffff" fill-rule="evenodd" stroke="#000000" stroke-width="0.48" stroke-linecap="square" stroke-linejoin="bevel" d="M25.6269 5.76883C21.1464 -10.6529 0.331504 12.6042 15.583 18.4738C32.7095 17.9388 16.6958 118.108 8.57964 161.31C5.91919 175.472 -0.636606 172.116 0.0500883 182.309C0.508781 189.116 8.04885 188.906 10.5885 186.065C12.3803 184.425 12.6403 183.499 14.9077 186.02C23.7613 193.95 28.3413 182.007 25.1824 165.657C21.6502 147.375 31.6734 31.7261 39.4783 27.9531L33.95 11.3954C29.3096 16.5812 26.5352 14.7056 25.6269 5.76883Z" sodipodi:nodetypes="ccssccsccc"/><path id="shape020" transform="matrix(-0.624787807626293 0.193248814322344 -0.193256031539122 -0.624811141425592 111.659866320002 163.604256563904)" fill="#ffffff" fill-rule="evenodd" stroke="#000000" stroke-width="0.48" stroke-linecap="square" stroke-linejoin="bevel" d="M28.7063 5.08325C24.2258 -9.38692 3.41091 11.1064 18.6624 16.2784C34.8998 15.3249 10.5507 103.605 8.05876 144.723C7.28687 157.459 -0.644601 152.587 0.0420934 161.569C0.500786 167.567 8.04086 167.382 10.5805 164.879C12.3723 163.434 12.6323 162.617 14.8997 164.838C23.7533 171.826 25.2413 160.567 22.0824 146.161C18.5502 130.05 31.6654 28.8807 39.4703 25.5561L37.0294 10.0412C32.389 14.6108 29.6146 12.9581 28.7063 5.08325Z" sodipodi:nodetypes="ccssccsccc"/><path id="shape036" transform="matrix(-0.0147037153234342 -0.719087261256848 0.71910657172142 -0.0147223867559971 44.9866184896366 139.307524635457)" fill="#ffffff" stroke="#000000" stroke-width="0.48" stroke-linecap="square" stroke-linejoin="bevel" d="M3.36621 0.734935C2.14015 -1.30871 -1.32007 1.43865 0.53657 2.57899C3.36475 4.31607 3.39202 5.80008 4.10853 6.25169C5.09681 6.87461 6.96152 4.65483 6.23466 4.22829C4.82723 3.40237 4.42334 2.497 3.36621 0.734935Z" sodipodi:nodetypes="cssss"/><path id="shape029" transform="matrix(0.403531932594387 -0.684557980500273 -0.684555924049387 -0.403561538295632 55.4982889218055 150.059044220236)" fill="#ffffff" stroke="#000000" stroke-width="0.48" stroke-linecap="square" stroke-linejoin="bevel" d="M3.79437 0.530564C2.62789 -1.56949 -1.95586 3.17243 0.948578 4.21009C5.83669 5.95644 9.61906 10.1746 9.85866 10.3538C11.4324 11.5318 13.7355 7.74042 12.0964 7.39258C11.6892 7.30617 5.12414 2.9246 3.79437 0.530564Z" sodipodi:nodetypes="cssss"/><path id="shape034" transform="matrix(0.453453973796341 -0.652559669808798 -0.652559826700034 -0.453483650418818 54.0718490526662 138.606639864626)" fill="#ffffff" stroke="#000000" stroke-width="0.48" stroke-linecap="square" stroke-linejoin="bevel" d="M3.21824 0.852929C1.71145 -1.76943 -1.26334 2.42 0.588818 3.19819C3.70596 4.50786 4.20431 2.56906 3.21824 0.852929Z" sodipodi:nodetypes="ccs"/><path id="shape040" transform="matrix(-0.579110693768471 -0.426557676329089 -0.426575750210035 0.579090822903783 58.2754918785083 146.896634478992)" fill="#ffffff" stroke="#000000" stroke-width="0.48" stroke-linecap="square" stroke-linejoin="bevel" d="M2.83092 0.283435C2.15241 -0.380234 0.380684 0.193983 0.0240675 1.25555C-0.256766 2.09154 1.98793 3.72144 3.22126 4.09223C4.18611 4.38233 4.68218 4.25554 4.61855 3.35926C4.57795 2.78743 3.78788 1.21947 2.83092 0.283435Z" sodipodi:nodetypes="cssss"/><path id="shape023" transform="matrix(-0.253461028222444 0.673098228345971 -0.673122257451553 -0.253449023285092 65.3406492085102 142.188741772852)" fill="#ffffff" stroke="#000000" stroke-width="0.48" stroke-linecap="square" stroke-linejoin="bevel" d="M2.88421 0.370999C1.2575 -1.55207 -1.69866 4.6292 1.26652 4.58425C5.36423 4.52215 7.31567 7.78571 7.95393 8.98286C9.26179 11.4359 12.2715 7.08832 10.5769 6.57124C10.1648 6.44552 4.32284 2.07173 2.88421 0.370999Z" sodipodi:nodetypes="cssss"/><path id="shape34" transform="matrix(0.0370976526291651 0.718276613692973 -0.718303438996124 0.0370990381062338 54.661400988935 146.86594349286)" fill="#ffffff" fill-rule="evenodd" stroke="#000000" stroke-width="0.48" stroke-linecap="square" stroke-linejoin="bevel" d="M1.77234 0.32126C1.51488 -0.287962 0.124962 0.0125795 0.0105463 0.858209C-0.0735696 1.4799 0.359001 3.51697 0.82655 3.55935C1.53671 3.62372 2.0689 1.023 1.77234 0.32126Z" sodipodi:nodetypes="csss"/><path id="shape20" transform="matrix(0.636492241676571 0.334925597550221 -0.334938105935593 0.636516012598539 56.5711537520856 119.971935147977)" fill="#ffffff" fill-rule="evenodd" stroke="#000000" stroke-width="0.48" stroke-linecap="square" stroke-linejoin="bevel" d="M4.48015 0L0 4.16593C1.9821 8.46258 1.66565 11.4336 2.38048 15.1648C4.18199 15.4654 7.91574 14.4424 8.34306 12.0608C8.56781 10.8082 8.05325 3.26698 4.48015 0Z" sodipodi:nodetypes="cccsc"/><path id="shape23" transform="matrix(0.636492241676571 0.334925597550221 -0.334938105935593 0.636516012598539 58.2525074326036 128.773303325486)" fill="#ffffff" fill-rule="evenodd" stroke="#000000" stroke-width="0.48" stroke-linecap="square" stroke-linejoin="bevel" d="M3.11033 2.24389L0 0C0.172986 1.68198 1.42676 5.65819 1.98411 5.81966C3.83622 6.35622 5.08119 4.38057 4.81398 4.15287C4.24804 3.67064 4.86151 3.65143 3.11033 2.24389Z" sodipodi:nodetypes="ccssc"/><path id="shape24" transform="matrix(0.625364173207141 0.355270630128435 -0.355282365719346 0.625388335002228 59.3230678669517 122.380733656294)" fill="#ffffff" fill-rule="evenodd" stroke="#000000" stroke-width="0.48" stroke-linecap="square" stroke-linejoin="bevel" d="M1.01177 0.000742292C-2.08182 -0.0712903 2.66406 5.11358 5.28076 9.30275C5.90058 10.295 7.82333 5.48216 7.28531 4.24808C6.43649 2.30115 4.36262 0.078765 1.01177 0.000742292Z" sodipodi:nodetypes="csss"/><path id="shape26" transform="matrix(0.636492241676571 0.334925597550221 -0.334938105935593 0.636516012598539 61.701796144041 128.090063222138)" fill="#ffffff" fill-rule="evenodd" stroke="#000000" stroke-width="0.48" stroke-linecap="square" stroke-linejoin="bevel" d="M4.50634 0.328268C4.36207 0.20969 2.27661 -0.546799 1.36826 0.741642C0.934014 1.35758 -0.333134 3.54935 0.082568 4.21512C0.677584 5.39127 2.04869 8.13069 2.59419 4.48169C2.8475 2.78721 6.47499 1.9464 4.50634 0.328268Z" sodipodi:nodetypes="cscss"/><path id="shape27" transform="matrix(0.636492241676571 0.334925597550221 -0.334938105935593 0.636516012598539 53.1258806161429 122.241446084827)" fill="#ffffff" fill-rule="evenodd" stroke="#000000" stroke-width="0.48" stroke-linecap="square" stroke-linejoin="bevel" d="M2.47829 1.50047e-05C1.34034 -0.013412 -0.107611 8.98893 0.00632776 9.47472C0.648697 12.2135 6.8913 15.9097 5.89054 10.6525C5.85552 10.4685 4.31089 0.0216383 2.47829 1.50047e-05Z" sodipodi:nodetypes="csss"/><path id="shape28" transform="matrix(0.636492241676571 0.334925597550221 -0.334938105935593 0.636516012598539 54.7971146264901 128.026756864286)" fill="#ffffff" fill-rule="evenodd" stroke="#000000" stroke-width="0.48" stroke-linecap="square" stroke-linejoin="bevel" d="M3.9203 0.0561163C3.14371 -0.474014 -0.88761 2.85392 0.178172 5.73529C0.357766 6.22083 3.98803 5.27585 5.49738 4.89857C5.51393 4.89444 5.01691 0.804706 3.9203 0.0561163Z" sodipodi:nodetypes="csss"/><path id="shape025" transform="matrix(0.442197012868146 0.567249785552267 -0.567241126019947 0.442222439801426 57.1711594545893 131.923868661422)" fill="#ffffff" stroke="#000000" stroke-width="0.48" stroke-linecap="square" stroke-linejoin="bevel" d="M4.32697 0.788353C1.92509 -1.9648 -2.42147 3.28643 1.71206 4.43983C9.50339 6.61388 15.5971 14.2112 16.0084 14.4254C18.6648 15.8085 21.3265 11.5778 19.3341 10.1308C18.8439 9.77476 6.69451 3.50215 4.32697 0.788353Z" sodipodi:nodetypes="cssss"/><path id="shape30" transform="matrix(0.506603422759385 0.510539422236242 -0.510558489228694 0.506622342755015 63.2400764735366 130.772401798244)" fill="#ffffff" fill-rule="evenodd" stroke="#000000" stroke-width="0.48" stroke-linecap="square" stroke-linejoin="bevel" d="M3.32653 0.526971C1.40589 -1.96634 -1.97977 5.20951 1.5159 4.99042C6.51332 4.67723 9.25786 11.0778 9.59177 11.9019C10.1608 13.3061 14.3937 9.08243 13.0453 8.60416C12.5613 8.43249 5.02511 2.73201 3.32653 0.526971Z" sodipodi:nodetypes="cssss"/><path id="shape024" transform="matrix(0.456592682395158 0.55572372916642 -0.555721710772469 0.456619467512701 60.106378969438 132.222517660573)" fill="#ffffff" stroke="#000000" stroke-width="0.48" stroke-linecap="square" stroke-linejoin="bevel" d="M4.39206 0.772954C2.84165 -1.87997 -2.84968 3.0358 1.77715 4.42443C9.52471 6.74967 15.6622 14.1958 16.0735 14.41C18.7299 15.7931 21.3916 11.5624 19.3992 10.1154C18.909 9.75936 6.2092 3.88229 4.39206 0.772954Z" sodipodi:nodetypes="cssss"/><path id="shape028" transform="matrix(0.336420128559355 0.635710026565215 -0.635713397707346 0.336446777233557 62.4000685539393 148.49295374525)" fill="#ffffff" stroke="#000000" stroke-width="0.48" stroke-linecap="square" stroke-linejoin="bevel" d="M3.79562 0.540173C2.62875 -1.59791 -1.95651 3.22987 0.948896 4.28632C5.83861 6.0643 9.62222 10.3588 9.8619 10.5413C11.4362 11.7406 13.74 7.88058 12.1004 7.52644C11.693 7.43846 5.12582 2.97756 3.79562 0.540173Z" sodipodi:nodetypes="cssss"/><path id="shape030" transform="matrix(0.403531932594387 -0.684557980500273 -0.684555924049387 -0.403561538295632 51.7833029947777 149.726469097572)" fill="#ffffff" stroke="#000000" stroke-width="0.48" stroke-linecap="square" stroke-linejoin="bevel" d="M3.42638 0.494542C2.37303 -1.46293 -1.76618 2.95704 0.856585 3.92424C5.27063 5.55202 8.68618 9.48379 8.90254 9.65082C10.3237 10.7488 12.4034 7.21488 10.9233 6.89066C10.5556 6.81011 4.62719 2.72603 3.42638 0.494542Z" sodipodi:nodetypes="cssss"/><path id="shape032" transform="matrix(-0.56489382612351 -0.445203986387697 0.445188172259269 -0.56491553855723 47.7215469948192 145.181628569621)" fill="#ffffff" stroke="#000000" stroke-width="0.48" stroke-linecap="square" stroke-linejoin="bevel" d="M3.23687 0.504161C2.13901 -1.39582 -1.64785 2.6267 0.81942 3.46038C4.97178 4.86343 8.2041 8.22846 8.38837 8.39636C9.42884 9.34445 11.4921 6.2978 10.2893 6.01726C9.94575 5.93712 4.35286 2.43551 3.23687 0.504161Z" sodipodi:nodetypes="cssss"/><path id="shape033" transform="matrix(0.249066566642136 0.674738161182944 -0.674745039545842 0.249092532091482 60.158905952194 159.152677879097)" fill="#ffffff" stroke="#000000" stroke-width="0.48" stroke-linecap="square" stroke-linejoin="bevel" d="M2.93194 0.951671C1.66712 -1.76119 -1.24327 2.10949 0.589787 2.87965C3.67477 4.17581 4.41677 6.4488 5.12437 6.90385C6.23732 7.61959 7.66246 5.35769 6.76403 4.78363C5.48635 3.96726 3.76231 2.73271 2.93194 0.951671Z" sodipodi:nodetypes="cssss"/><path id="shape026" transform="matrix(0.426437680876214 0.579193417553034 -0.57918071847615 0.426461350474481 54.1502334682794 132.148521488456)" fill="#ffffff" stroke="#000000" stroke-width="0.48" stroke-linecap="square" stroke-linejoin="bevel" d="M3.73738 0.816396C1.54837 -1.75987 -2.10548 2.4613 1.56166 3.84285C8.47553 6.44757 11.8242 11.8167 14.3274 13.1418C16.9206 14.5146 19.3972 9.94457 16.8253 9.04685C16.2992 8.86319 5.89509 3.35585 3.73738 0.816396Z" sodipodi:nodetypes="cssss"/><path id="shape035" transform="matrix(0.453453973796342 -0.6525596698088 -0.652559826700036 -0.453483650418818 50.200898782456 139.383694710715)" fill="#ffffff" stroke="#000000" stroke-width="0.48" stroke-linecap="square" stroke-linejoin="bevel" d="M3.16119 0.771238C1.67458 -1.59431 -1.27633 2.17041 0.611256 2.88482C3.77344 4.08165 4.21566 5.90681 4.9507 6.33379C5.96454 6.92274 7.75257 5.00832 7.00692 4.60505C5.56308 3.82417 4.2177 2.4524 3.16119 0.771238Z" sodipodi:nodetypes="cssss"/><path id="shape039" transform="matrix(-0.419278530563896 0.584402396196705 0.584382753025444 0.419296851651712 57.4966435088503 165.292473954653)" fill="#ffffff" stroke="#000000" stroke-width="0.48" stroke-linecap="square" stroke-linejoin="bevel" d="M2.25628 0.201007C1.77402 -0.311175 0.274144 0.223069 0.0206723 1.04233C-0.178935 1.6875 1.11112 3.08905 1.98773 3.37521C2.67352 3.59909 3.45618 3.3082 3.2841 2.64211C3.17404 2.21614 2.93646 0.923388 2.25628 0.201007Z" sodipodi:nodetypes="cssss"/><path id="shape027" transform="matrix(-0.295262786143607 -0.655850001595741 0.655835911715569 -0.295285655155668 48.1083248803324 144.682700832242)" fill="#ffffff" stroke="#000000" stroke-width="0.48" stroke-linecap="square" stroke-linejoin="bevel" d="M3.54011 0.695326C1.57129 -1.71573 -1.97637 2.83335 1.39667 3.89309C7.35103 5.76382 11.0971 11.2461 11.5104 11.3357C14.2251 11.924 15.6641 9.43974 13.6571 8.58716C13.1889 8.3883 5.48078 3.07192 3.54011 0.695326Z" sodipodi:nodetypes="cssss"/><path id="shape0122" transform="matrix(-0.711597492117659 0.120405503108772 0.120409999864006 0.711624067977271 105.185843797569 167.54643597714)" fill="#ffffff" fill-rule="evenodd" stroke="#000000" stroke-width="0.48" stroke-linecap="square" stroke-linejoin="bevel" d="M1.48813 7.45554C-5.19614 18.2007 12.5893 22.4836 16.2887 13.4453C19.1607 6.42859 11.9086 -9.29575 1.48813 7.45554Z" sodipodi:nodetypes="css"/><path id="shape074" transform="matrix(0.855469937518274 -0.129948633655082 0.129953486815306 0.855501886547342 107.647597088656 161.77813494115)" fill="#ffffff" fill-rule="evenodd" stroke="#000000" stroke-width="0.48" stroke-linecap="square" stroke-linejoin="bevel" d="M8.0167 0L14.5554 4.24739C15.165 7.6576 19.9403 20.8571 22.8395 23.1614L1.59702 19.8427C-0.485925 6.45283 -1.13337 5.10422 3.41967 3.29824" sodipodi:nodetypes="ccccc"/><path id="shape0113" transform="matrix(0.855469937518274 -0.129948633655082 0.129953486815306 0.855501886547342 110.960047138101 171.286826599153)" fill="#ffffff" fill-rule="evenodd" stroke="#000000" stroke-width="0.48" stroke-linecap="square" stroke-linejoin="bevel" d="M0.00750163 3.00857C-0.4133 14.4352 16.9985 22.5269 19.725 12.8548C21.2238 7.53803 0.338637 -5.98321 0.00750163 3.00857Z" sodipodi:nodetypes="css"/><path id="shape0213" transform="matrix(0.790585710658919 0.12671379427382 -0.141436130730914 0.708411553142001 126.006982678927 179.192787362524)" fill="#ffffff" stroke="#000000" stroke-width="0.48" stroke-linecap="square" stroke-linejoin="bevel" d="M5.36053 5.54979C0.570825 -3.9051 -2.01097 0.500275 1.92056 5.67152C3.6981 8.00957 4.50468 10.3051 5.26714 12.3412C7.33331 17.8588 11.6366 14.3973 9.86339 11.9893C8.52983 10.1785 6.37712 7.55654 5.36053 5.54979Z" sodipodi:nodetypes="cssss"/><path id="shape112" transform="matrix(0.729458066593939 0.35121636652412 -0.351229483316902 0.729485309488107 113.258299814804 172.014655109647)" fill="#ffffff" fill-rule="evenodd" stroke="#000000" stroke-width="0.48" stroke-linecap="square" stroke-linejoin="bevel" d="M6.40854 6.12881C8.53108 -4.63178 -3.43095 0.962734 0.987906 6.37393C3.12393 8.98964 1.35259 11.6554 2.41329 13.7727C4.58468 18.1073 9.98251 14.8272 9.30568 13.0728C7.48174 8.34495 6.06055 7.89304 6.40854 6.12881Z" sodipodi:nodetypes="cssss"/><path id="shape0115" transform="matrix(0.864797738608601 0.0261148015375783 -0.0291694598043629 0.774906634988837 123.61514341166 178.245786439242)" fill="#ffffff" stroke="#000000" stroke-width="0.48" stroke-linecap="square" stroke-linejoin="bevel" d="M4.725 5.88294C5.39148 -4.58697 -2.12643 1.07857 0.59679 6.30965C1.91314 8.83831 1.14363 11.1457 1.81542 13.1818C3.6359 18.6994 7.54911 14.8553 6.70292 12.7355C5.02796 8.53946 4.61599 7.59549 4.725 5.88294Z" sodipodi:nodetypes="cssss"/><path id="shape0214" transform="matrix(0.851766343153057 0.136519726729825 -0.152381372744495 0.763233018168556 121.268487020637 176.602505462961)" fill="#ffffff" stroke="#000000" stroke-width="0.48" stroke-linecap="square" stroke-linejoin="bevel" d="M5.85185 5.91134C6.60828 -4.55857 -2.44526 1.03018 0.645479 6.26126C2.13949 8.78992 1.78713 11.1741 2.54959 13.2102C4.61576 18.7278 8.983 15.2097 7.94405 12.701C6.18515 8.45375 5.72812 7.62389 5.85185 5.91134Z" sodipodi:nodetypes="cssss"/><path id="shape0313" transform="matrix(0.825798222784571 0.231540925854762 -0.258424614411384 0.739966942142277 119.664092656025 174.650290427618)" fill="#ffffff" stroke="#000000" stroke-width="0.48" stroke-linecap="square" stroke-linejoin="bevel" d="M5.00227 6.44531C5.7587 -4.8247 -2.38769 0.971943 0.703045 6.60278C2.19706 9.32468 0.937555 12.1102 1.70001 14.3019C3.76618 20.2412 7.89345 15.7811 7.09447 13.7538C5.29914 9.19845 4.87854 8.28874 5.00227 6.44531Z" sodipodi:nodetypes="cssss"/><path id="shape211" transform="matrix(0.779623587672662 0.375369848190758 -0.375383867037785 0.779652704086425 111.155028107522 182.328285185614)" fill="#ffffff" fill-rule="evenodd" stroke="#000000" stroke-width="0.48" stroke-linecap="square" stroke-linejoin="bevel" d="M5.76814 1.77173C3.16461 -2.72166 -2.90679 2.48404 1.64186 4.71862C2.89657 5.33501 2.34706 6.02818 3.37732 6.85532C7.15341 9.887 9.73972 6.65442 7.11166 4.60033C5.93721 3.68239 6.31296 2.71202 5.76814 1.77173Z" sodipodi:nodetypes="cssss"/><path id="shape310" transform="matrix(0.779623587672661 0.336343993902256 -0.375383867037785 0.698595013992334 118.687172635099 184.186443066295)" fill="#ffffff" fill-rule="evenodd" stroke="#000000" stroke-width="0.48" stroke-linecap="square" stroke-linejoin="bevel" d="M0.231783 2.92408C-1.07235 0.959494 3.50412 -1.9538 4.5778 1.86659C5.69696 5.84878 6.6746 5.46355 6.86711 6.79481C7.22064 9.23953 3.80249 9.99408 2.68236 8.00213C2.12358 7.00843 1.92363 5.47274 0.231783 2.92408Z" sodipodi:nodetypes="cssss"/><path id="shape412" transform="matrix(0.779623587672661 0.336343993902256 -0.375383867037785 0.698595013992334 123.430221136604 185.33314595967)" fill="#ffffff" fill-rule="evenodd" stroke="#000000" stroke-width="0.48" stroke-linecap="square" stroke-linejoin="bevel" d="M0.271286 2.69138C-1.06589 0.137545 2.91953 -1.45606 3.98121 1.93353C4.84774 4.70005 5.0712 5.34465 5.49114 6.98806C6.08611 9.31647 2.63675 9.64149 2.05236 6.92026C1.6829 5.19988 0.514298 3.15551 0.271286 2.69138Z" sodipodi:nodetypes="cssss"/><path id="shape0413" transform="matrix(0.779623587672661 0.336343993902256 -0.375383867037785 0.698595013992334 126.720456774288 187.622947449203)" fill="#ffffff" stroke="#000000" stroke-width="0.48" stroke-linecap="square" stroke-linejoin="bevel" d="M0.190572 2.71464C-0.909786 0.128903 3.07832 -1.46506 3.9005 1.95679C4.57778 4.77562 4.41214 4.37677 4.71522 6.04569C5.14608 8.41833 1.5101 8.49813 1.29571 5.67715C1.16237 3.92261 0.395715 3.1967 0.190572 2.71464Z" sodipodi:nodetypes="cssss"/><path id="shape0513" transform="matrix(0.779623587672661 0.336343993902256 -0.375383867037785 0.698595013992334 131.8146349917 189.277541173183)" fill="#ffffff" stroke="#000000" stroke-width="0.48" stroke-linecap="square" stroke-linejoin="bevel" d="M0.268211 2.41436C-0.968112 -0.487173 2.43831 -1.04834 3.01436 2.25469C3.28335 3.79708 3.51829 3.64562 3.82137 5.31454C4.25224 7.68717 1.28375 7.73679 0.868326 4.93834C0.643748 3.42548 0.565564 3.11222 0.268211 2.41436Z" sodipodi:nodetypes="cssss"/><path id="shape53" transform="matrix(0.779623587672662 0.375369848190758 -0.375383867037785 0.779652704086425 112.04110589756 187.82010258341)" fill="#ffffff" fill-rule="evenodd" stroke="#000000" stroke-width="0.48" stroke-linecap="square" stroke-linejoin="bevel" d="M4.94088 0.78912C3.34642 -0.983034 -1.11703 0.443907 0.260106 2.94511C0.697424 3.73939 3.07669 4.24863 7.39789 4.47285C7.16782 3.58187 6.34882 2.35396 4.94088 0.78912Z" sodipodi:nodetypes="cscs"/><path id="shape62" transform="matrix(0.779623587672661 0.336343993902256 -0.375383867037785 0.698595013992334 119.029992683913 189.082648999359)" fill="#ffffff" fill-rule="evenodd" stroke="#000000" stroke-width="0.48" stroke-linecap="square" stroke-linejoin="bevel" d="M3.53132 1.92424C3.27741 -1.39289 -0.515213 0.189676 0.0591298 2.11562C0.218511 2.65007 0.699968 5.18701 1.15013 6.25263C1.87568 7.97014 3.58785 7.7329 3.41695 6.23514C3.23451 4.63623 3.70326 4.17049 3.53132 1.92424Z" sodipodi:nodetypes="cssss"/><path id="shape0611" transform="matrix(0.706870788926863 0.447165361779563 -0.499058787969662 0.633407779423039 123.308816776325 189.995945931318)" fill="#ffffff" stroke="#000000" stroke-width="0.48" stroke-linecap="square" stroke-linejoin="bevel" d="M3.57658 2.00666C3.21779 -1.42063 -0.681676 0.156152 0.104394 2.19804C0.614441 3.52294 0.868656 5.33338 1.19539 6.33505C1.77359 8.10761 3.50267 7.79929 3.4347 6.29334C3.34076 4.21168 3.81712 4.30432 3.57658 2.00666Z" sodipodi:nodetypes="cssss"/><path id="shape075" transform="matrix(0.594119618741358 0.563678827095346 -0.629084942368242 0.532379991823028 126.870278363379 191.20427315602)" fill="#ffffff" stroke="#000000" stroke-width="0.48" stroke-linecap="square" stroke-linejoin="bevel" d="M3.45105 1.8235C3.10485 -1.29096 -0.65775 0.141896 0.10073 1.99742C0.592875 3.20139 0.838167 4.84658 1.15343 5.75683C1.71134 7.3676 3.37973 7.08742 3.31415 5.71892C3.2235 3.82726 3.68314 3.91145 3.45105 1.8235Z" sodipodi:nodetypes="cssss"/><path id="shape084" transform="matrix(0.59411961874136 0.563678827095347 -0.629084942368239 0.532379991823027 131.403065801429 192.357726862712)" fill="#ffffff" stroke="#000000" stroke-width="0.48" stroke-linecap="square" stroke-linejoin="bevel" d="M2.98256 1.49983C3.26614 -0.951307 -0.661034 0.0157171 0.0974456 1.47125C0.589591 2.41568 0.605281 3.1247 0.664435 4.01355C0.762312 5.48426 2.64567 5.19007 2.80132 3.97185C2.98973 2.4972 2.79992 3.07851 2.98256 1.49983Z" sodipodi:nodetypes="cssss"/><path id="shape0102" transform="matrix(-0.675201020189343 0.11424705600566 0.114251322762858 0.675226236758712 98.4883875510486 165.387490573392)" fill="#ffffff" fill-rule="evenodd" stroke="#000000" stroke-width="0.48" stroke-linecap="square" stroke-linejoin="bevel" d="M4.99972 0L10.819 1.64238C8.96029 4.49623 14.7489 11.2723 19.6884 14.2231L0 17.9914C1.08802 12.7062 0.708479 7.52156 0.550897 2.51961" sodipodi:nodetypes="ccccc"/><path id="shape01211" transform="matrix(-0.711597492117658 0.120405503108772 0.120409999864006 0.711624067977271 100.87369517562 174.099760276811)" fill="#ffffff" fill-rule="evenodd" stroke="#000000" stroke-width="0.48" stroke-linecap="square" stroke-linejoin="bevel" d="M0.00639883 5.69129C-0.414403 17.1179 20.0502 14.795 22.7767 5.1229C24.2755 -0.193874 0.337534 -3.30049 0.00639883 5.69129Z" sodipodi:nodetypes="css"/><path id="shape0132" transform="matrix(-0.695235852115496 -0.193696639422645 -0.193689405751204 0.695261816920894 86.465031626593 181.099848386737)" fill="#ffffff" stroke="#000000" stroke-width="0.48" stroke-linecap="square" stroke-linejoin="bevel" d="M5.36053 5.54979C0.570825 -3.9051 -2.01097 0.500275 1.92056 5.67152C3.6981 8.00957 4.50468 10.3051 5.26714 12.3412C7.33331 17.8588 11.6366 14.3973 9.86339 11.9893C8.52983 10.1785 6.37712 7.55654 5.36053 5.54979Z" sodipodi:nodetypes="cssss"/><path id="shape121" transform="matrix(-0.72171218360716 0 0 0.721739137217713 97.2520567496623 179.308977082929)" fill="#ffffff" fill-rule="evenodd" stroke="#000000" stroke-width="0.48" stroke-linecap="square" stroke-linejoin="bevel" d="M6.79443 7.5264C9.04477 -5.68799 -3.63754 1.18227 1.04739 7.82741C3.31203 11.0396 1.43403 14.3132 2.5586 16.9134C4.86074 22.2364 10.5836 18.2083 9.86601 16.0539C7.93225 10.2479 6.42548 9.69294 6.79443 7.5264Z" sodipodi:nodetypes="cssss"/><path id="shape0141" transform="matrix(-0.660445865801242 -0.291008693097528 -0.290997825272055 0.660470531313424 88.2516870242706 179.628612788217)" fill="#ffffff" stroke="#000000" stroke-width="0.48" stroke-linecap="square" stroke-linejoin="bevel" d="M4.725 5.88294C5.39148 -4.58697 -2.12643 1.07857 0.59679 6.30965C1.91314 8.83831 1.14363 11.1457 1.81542 13.1818C3.6359 18.6994 7.54911 14.8553 6.70292 12.7355C5.02796 8.53946 4.61599 7.59549 4.725 5.88294Z" sodipodi:nodetypes="cssss"/><path id="shape0221" transform="matrix(-0.695235852115496 -0.193696639422645 -0.193689405751204 0.695261816920894 90.7305399524557 179.220836392459)" fill="#ffffff" stroke="#000000" stroke-width="0.48" stroke-linecap="square" stroke-linejoin="bevel" d="M5.85185 5.91134C6.60828 -4.55857 -2.44526 1.03018 0.645479 6.26126C2.13949 8.78992 1.78713 11.1741 2.54959 13.2102C4.61576 18.7278 8.983 15.2097 7.94405 12.701C6.18515 8.45375 5.72812 7.62389 5.85185 5.91134Z" sodipodi:nodetypes="cssss"/><path id="shape0314" transform="matrix(-0.714091639924881 -0.104606037295577 -0.104602130745072 0.71411830893283 92.7245847568255 178.164029603038)" fill="#ffffff" stroke="#000000" stroke-width="0.48" stroke-linecap="square" stroke-linejoin="bevel" d="M5.00227 6.44531C5.7587 -4.8247 -2.38769 0.971943 0.703045 6.60278C2.19706 9.32468 0.937555 12.1102 1.70001 14.3019C3.76618 20.2412 7.89345 15.7811 7.09447 13.7538C5.29914 9.19845 4.87854 8.28874 5.00227 6.44531Z" sodipodi:nodetypes="cssss"/><path id="shape71" transform="matrix(-0.72171218360716 0 0 0.721739137217713 95.1919419027244 188.294666634178)" fill="#ffffff" fill-rule="evenodd" stroke="#000000" stroke-width="0.48" stroke-linecap="square" stroke-linejoin="bevel" d="M5.76814 2.06384C3.16461 -3.17039 -2.90679 2.89359 1.64186 5.49659C2.89657 6.21461 2.34706 7.02206 3.37732 7.98558C7.15341 11.5171 9.73972 7.75156 7.11166 5.3588C5.93721 4.28951 6.31296 3.15916 5.76814 2.06384Z" sodipodi:nodetypes="cssss"/><path id="shape81" transform="matrix(-0.72171218360716 0 0 0.721739137217713 89.6079051766517 186.515504854823)" fill="#ffffff" fill-rule="evenodd" stroke="#000000" stroke-width="0.48" stroke-linecap="square" stroke-linejoin="bevel" d="M0.231783 2.92408C-1.07235 0.959494 3.50412 -1.9538 4.5778 1.86659C5.69696 5.84878 6.6746 5.46355 6.86711 6.79481C7.22064 9.23953 3.80249 9.99408 2.68236 8.00213C2.12358 7.00843 1.92363 5.47274 0.231783 2.92408Z" sodipodi:nodetypes="cssss"/><path id="shape91" transform="matrix(-0.72171218360716 0 0 0.721739137217713 85.6468636876351 185.793052069633)" fill="#ffffff" fill-rule="evenodd" stroke="#000000" stroke-width="0.48" stroke-linecap="square" stroke-linejoin="bevel" d="M0.271286 2.69138C-1.06589 0.137545 2.91953 -1.45606 3.98121 1.93353C4.84774 4.70005 5.0712 5.34465 5.49114 6.98806C6.08611 9.31647 2.63675 9.64149 2.05236 6.92026C1.6829 5.19988 0.514298 3.15551 0.271286 2.69138Z" sodipodi:nodetypes="cssss"/><path id="shape0151" transform="matrix(-0.72171218360716 0 0 0.721739137217713 82.2208301011949 186.412723384548)" fill="#ffffff" stroke="#000000" stroke-width="0.48" stroke-linecap="square" stroke-linejoin="bevel" d="M0.190572 2.71464C-0.909786 0.128903 3.07832 -1.46506 3.9005 1.95679C4.57778 4.77562 4.41214 4.37677 4.71522 6.04569C5.14608 8.41833 1.5101 8.49813 1.29571 5.67715C1.16237 3.92261 0.395715 3.1967 0.190572 2.71464Z" sodipodi:nodetypes="cssss"/><path id="shape0162" transform="matrix(-0.72171218360716 0 0 0.721739137217713 79.0369840855647 186.905291182597)" fill="#ffffff" stroke="#000000" stroke-width="0.48" stroke-linecap="square" stroke-linejoin="bevel" d="M0.268211 2.41436C-0.968112 -0.487173 2.43831 -1.04834 3.01436 2.25469C3.28335 3.79708 3.51829 3.64562 3.82137 5.31454C4.25224 7.68717 1.28375 7.73679 0.868326 4.93834C0.643748 3.42548 0.565564 3.11222 0.268211 2.41436Z" sodipodi:nodetypes="cssss"/><path id="shape101" transform="matrix(-0.72171218360716 0 0 0.721739137217713 93.1104543920639 192.143303507921)" fill="#ffffff" fill-rule="evenodd" stroke="#000000" stroke-width="0.48" stroke-linecap="square" stroke-linejoin="bevel" d="M4.94088 0.78912C3.34642 -0.983034 -1.11703 0.443907 0.260106 2.94511C0.697424 3.73939 3.07669 4.24863 7.39789 4.47285C7.16782 3.58187 6.34882 2.35396 4.94088 0.78912Z" sodipodi:nodetypes="cscs"/><path id="shape131" transform="matrix(-0.72171218360716 0 0 0.721739137217713 87.3731131435074 190.497921619982)" fill="#ffffff" fill-rule="evenodd" stroke="#000000" stroke-width="0.48" stroke-linecap="square" stroke-linejoin="bevel" d="M3.53132 1.92424C3.27741 -1.39289 -0.515213 0.189676 0.0591298 2.11562C0.218511 2.65007 0.699968 5.18701 1.15013 6.25263C1.87568 7.97014 3.58785 7.7329 3.41695 6.23514C3.23451 4.63623 3.70326 4.17049 3.53132 1.92424Z" sodipodi:nodetypes="cssss"/><path id="shape0173" transform="matrix(-0.711789368275881 0.119270422421422 0.119265968224122 0.711815951301447 83.7887500927109 189.715691775899)" fill="#ffffff" stroke="#000000" stroke-width="0.48" stroke-linecap="square" stroke-linejoin="bevel" d="M3.57658 2.00666C3.21779 -1.42063 -0.681676 0.156152 0.104394 2.19804C0.614441 3.52294 0.868656 5.33338 1.19539 6.33505C1.77359 8.10761 3.50267 7.79929 3.4347 6.29334C3.34076 4.21168 3.81712 4.30432 3.57658 2.00666Z" sodipodi:nodetypes="cssss"/><path id="shape0181" transform="matrix(-0.674106107591169 0.257787499909754 0.257777872741821 0.674131283269102 80.6243513376337 189.440469061389)" fill="#ffffff" stroke="#000000" stroke-width="0.48" stroke-linecap="square" stroke-linejoin="bevel" d="M3.45105 1.8235C3.10485 -1.29096 -0.65775 0.141896 0.10073 1.99742C0.592875 3.20139 0.838167 4.84658 1.15343 5.75683C1.71134 7.3676 3.37973 7.08742 3.31415 5.71892C3.2235 3.82726 3.68314 3.91145 3.45105 1.8235Z" sodipodi:nodetypes="cssss"/><path id="shape0191" transform="matrix(-0.674106107591169 0.257787499909754 0.257777872741821 0.674131283269102 78.0658084874452 189.71368378036)" fill="#ffffff" stroke="#000000" stroke-width="0.48" stroke-linecap="square" stroke-linejoin="bevel" d="M2.98256 1.49983C3.26614 -0.951307 -0.661034 0.0157171 0.0974456 1.47125C0.589591 2.41568 0.605281 3.1247 0.664435 4.01355C0.762312 5.48426 2.64567 5.19007 2.80132 3.97185C2.98973 2.4972 2.79992 3.07851 2.98256 1.49983Z" sodipodi:nodetypes="cssss"/><path id="shape113" transform="matrix(0.660851406439406 -0.179511075083815 0.179517779240566 0.660876087097218 91.702328609833 45.0861853548924)" fill="#ffffff" fill-rule="evenodd" stroke="#000000" stroke-width="0.48" stroke-linecap="square" stroke-linejoin="bevel" d="M0.144559 6.00041C-2.25438 -2.47286 26.0577 -1.95339 21.8173 7.43934C16.6307 18.9279 3.67016 18.4531 0.144559 6.00041Z" sodipodi:nodetypes="css"/><path id="shape212" transform="matrix(0.677031802511906 -0.102843307308599 0.102847148172749 0.677057087455058 93.0759372055811 53.4102209560887)" fill="#ffffff" fill-rule="evenodd" stroke="#000000" stroke-width="0.48" stroke-linecap="square" stroke-linejoin="bevel" d="M3.49605 12.2978C-8.14239 -4.36539 35.8715 -3.80103 20.2169 12.2066C13.9332 20.5191 8.74814 138.275 12.3856 157.347C16.0231 176.419 17.3088 171.596 5.30518 170.597C-4.89029 167.683 2.65037 163.4 3.17955 152.969C5.59352 79.5444 8.39937 27.6495 3.49605 12.2978Z" sodipodi:nodetypes="cczccc"/><path id="shape311" transform="matrix(0.677031802511906 -0.102843307308599 0.102847148172749 0.677057087455058 102.197285458759 57.6268140088476)" fill="#ffffff" fill-rule="evenodd" stroke="#000000" stroke-width="0.48" stroke-linecap="square" stroke-linejoin="bevel" d="M16.8504 8.17369C26.1674 -5.72204 4.72964 -0.596399 5.54409 13.7676C5.25706 44.7344 5.18117 71.2662 3.15872 88.5696C-0.754758 122.052 -1.10629 139.639 2.52153 161.859C2.97456 164.633 8.28135 167.955 7.28368 163.181C6.28601 158.407 3.40631 133.422 7.80956 94.6572C12.2128 55.8924 9.48959 66.6955 16.8504 8.17369Z" sodipodi:nodetypes="ccsszzc"/><path id="shape141" transform="matrix(-0.684798369938692 0 0 0.684823944937962 70.5620609713954 58.2048401905595)" fill="#ffffff" fill-rule="evenodd" stroke="#000000" stroke-width="0.48" stroke-linecap="square" stroke-linejoin="bevel" d="M0.080881 4.51132C-1.56641 -2.7172 22.5278 -0.842721 19.616 7.17018C16.0545 16.971 2.50183 15.1347 0.080881 4.51132Z" sodipodi:nodetypes="css"/><path id="shape321" transform="matrix(-0.684798369938692 0 0 0.684823944937962 89.919812059103 70.1516948611411)" fill="#ffffff" fill-rule="evenodd" stroke="#000000" stroke-width="0.48" stroke-linecap="square" stroke-linejoin="bevel" d="M45.7022 4.56829C52.3486 -5.34437 35.561 2.48749 36.142 12.7342C35.9372 34.8247 -2.46278 131.989 0.125163 147.84C0.448343 149.819 4.01156 151.45 3.29986 148.045C2.58816 144.639 40.4513 46.3154 45.7022 4.56829Z" sodipodi:nodetypes="ccscc"/><path id="shape221" transform="matrix(-0.684798369938692 0 0 0.684823944937962 100.4596079703 67.0644526704886)" fill="#ffffff" fill-rule="evenodd" stroke="#000000" stroke-width="0.48" stroke-linecap="square" stroke-linejoin="bevel" d="M41.563 9.30809C29.9246 -2.52982 76.6147 -3.24376 60.9601 8.12845C54.6764 14.0338 11.6834 134.191 12.2466 144.135C12.8098 154.08 18.1279 153.916 6.97329 154.687C-7.41577 160.026 4.43334 146.416 7.48911 137.327C18.1872 84.1073 46.4664 20.2143 41.563 9.30809Z" sodipodi:nodetypes="cczccc"/><path id="shape172" transform="matrix(0.652682309495977 -0.0413607503130376 0.0413622950029865 0.652706685064498 118.177344590277 29.4995476750493)" fill="#ffffff" fill-rule="evenodd" stroke="#000000" stroke-width="0.48" stroke-linecap="square" stroke-linejoin="bevel" d="M17.552 5.08852C16.1289 -7.41071 -11.826 6.07644 5.826 13.9683C12.4596 36.4984 22.7977 78.6891 21.0471 104.424C20.4406 113.341 26.3917 114.506 33.2323 108.936C43.6377 105.458 44.6802 103.001 38.4422 95.6628C22.8471 77.3161 20.298 29.2068 17.552 5.08852Z" sodipodi:nodetypes="ccscss"/><path id="shape50" transform="translate(138.495609114043, 91.3294749794375)" fill="#ffffff" fill-rule="evenodd" stroke="#000000" stroke-width="0.48" stroke-linecap="square" stroke-linejoin="bevel" d="M8.95805 0.0805492C9.68266 0.261143 10.098 5.51673 9.37183 6.5808C8.86921 7.31729 5.74527 7.45982 0 7.00839C3.74678 1.83523 6.73279 -0.474047 8.95805 0.0805492Z" sodipodi:nodetypes="cscs"/><path id="shape182" transform="matrix(-0.659276905233386 0.113507552712143 -0.143201030452056 -0.831743174148826 145.917911248134 94.7251572177052)" fill="#ffffff" fill-rule="evenodd" stroke="#000000" stroke-width="0.48" stroke-linecap="square" stroke-linejoin="bevel" d="M7.34432 0.0906499C6.54915 -0.589911 -1.96293 2.74879 0.41921 3.86022C4.60067 5.81116 12.5181 21.2348 14.4018 28.9524C17.6628 42.3128 28.2259 60.9055 34.4767 68.037C40.4125 74.8092 44.4625 66.9521 38.9706 64.592C35.1324 62.9426 26.1801 48.2507 21.9797 34.5909C19.5647 26.7374 17.42 8.71412 7.34432 0.0906499Z" sodipodi:nodetypes="cssssss"/><path id="shape192" transform="matrix(-0.659276905233386 0.113507552712143 -0.143201030452056 -0.831743174148826 140.612977695934 99.2577393834601)" fill="#ffffff" fill-rule="evenodd" stroke="#000000" stroke-width="0.48" stroke-linecap="square" stroke-linejoin="bevel" d="M6.38618 0.014444C4.26138 -0.215533 -0.831938 2.35323 0.116443 3.97977C7.0111 15.8045 14.591 37.4009 17.2741 45.3451C23.2243 62.9627 23.781 71.2198 28.0577 74.3552C29.6252 75.5044 36.7423 76.0209 37.9994 73.7794C39.2821 71.4923 31.2256 64.5673 26.995 52.8052C19.7797 32.7449 12.4186 16.8935 8.61701 9.0693C7.35496 6.47182 8.76423 0.271833 6.38618 0.014444Z" sodipodi:nodetypes="csssssss"/><path id="shape54" transform="translate(22.6242285336856, 9.56899141347425)" fill="#ffffff" fill-rule="evenodd" stroke="#000000" stroke-width="0.48" stroke-linecap="square" stroke-linejoin="bevel" d="M31.407 53.1172L30.831 52.9571L30.262 52.7987L29.701 52.6419L29.148 52.4867L28.602 52.3328L28.064 52.1803L27.534 52.029L27.01 51.8789L26.494 51.7299L25.985 51.5818L25.483 51.4347L24.988 51.2883L24.5 51.1427L24.019 50.9978L23.545 50.8533L23.077 50.7094L22.616 50.5658L22.161 50.4225L21.712 50.2794L21.27 50.1364L20.834 49.9935L20.405 49.8505L19.981 49.7073L19.563 49.5639L19.151 49.4201L18.745 49.276L18.345 49.1314L17.95 48.9861L17.561 48.8402L17.177 48.6935L16.798 48.546L16.425 48.3976L16.057 48.2481L15.694 48.0975L15.336 47.9457L14.983 47.7926L14.635 47.6382L14.292 47.4822L13.953 47.3248L13.619 47.1657L13.289 47.0048L12.964 46.8422L12.643 46.6776L12.326 46.5111L12.013 46.3425L11.705 46.1717L11.4 45.9987L11.099 45.8234L10.802 45.6456L10.509 45.4653L10.22 45.2824L9.934 45.0968L9.651 44.9085L9.372 44.7173L9.096 44.5231L8.824 44.3259L8.554 44.1256L8.287 43.922L8.024 43.7152L7.763 43.5049L7.505 43.2912L7.25 43.074L6.997 42.8531L6.749 42.6288L6.505 42.4016L6.268 42.1714L6.035 41.9383L5.808 41.7022L5.587 41.4633L5.37 41.2214L5.159 40.9767L4.953 40.7291L4.752 40.4787L4.556 40.2255L4.365 39.9694L4.179 39.7105L3.998 39.4489L3.821 39.1844L3.65 38.9172L3.483 38.6473L3.32 38.3747L3.163 38.0993L3.01 37.8213L2.861 37.5406L2.717 37.2572L2.577 36.9711L2.442 36.6825L2.311 36.3912L2.184 36.0973L2.062 35.8008L1.943 35.5018L1.829 35.2002L1.718 34.896L1.612 34.5894L1.51 34.2802L1.411 33.9685L1.316 33.6544L1.225 33.3378L1.138 33.0187L1.055 32.6972L0.975 32.3733L0.898 32.047L0.826 31.7183L0.756 31.3872L0.69 31.0538L0.628 30.718L0.568 30.3799L0.512 30.0395L0.459 29.6968L0.41 29.3518L0.363 29.0046L0.32 28.6551L0.279 28.3033L0.241 27.9494L0.207 27.5932L0.175 27.2349L0.146 26.8743L0.119 26.5116L0.096 26.1468L0.075 25.7799L0.056 25.4108L0.04 25.0396L0.027 24.6664L0.016 24.2911L0.007 23.9137L0 23.5343L0.001 23.1253L0.013 22.7084L0.036 22.2841L0.072 21.8527L0.119 21.4148L0.178 20.9708L0.249 20.5212L0.331 20.0663L0.426 19.6066L0.532 19.1427L0.65 18.6748L0.78 18.2036L0.922 17.7293L1.075 17.2525L1.241 16.7737L1.418 16.2932L1.607 15.8114L1.808 15.329L2.022 14.8462L2.247 14.3636L2.484 13.8815L2.732 13.4005L2.993 12.921L3.266 12.4434L3.551 11.9681L3.848 11.4957L4.157 11.0265L4.478 10.5611L4.811 10.0998L5.156 9.6431L5.513 9.1915L5.882 8.7453L6.264 8.3051L6.657 7.8713L7.062 7.4443L7.48 7.0246L7.91 6.6126L8.352 6.2088L8.806 5.8136L9.272 5.4274L9.75 5.0508L10.241 4.6841L10.744 4.3279L11.259 3.9824L11.786 3.6483L12.325 3.3259L12.877 3.0157L13.441 2.7181L14.017 2.4336L14.606 2.1626L15.207 1.9056L15.82 1.6631L16.446 1.4353L17.083 1.2229L17.734 1.0263L18.396 0.8458L19.071 0.682L19.758 0.5353L20.458 0.4061L21.17 0.2949L21.895 0.2021L22.632 0.1282L23.381 0.0737L23.761 0.0528L24.146 0.0352L24.534 0.0209L24.926 0.0102L25.322 0.0032L25.721 0L26.124 0.0008L26.529 0.0058L26.937 0.0151L27.348 0.0289L27.762 0.0473L28.177 0.0705L28.595 0.0987L29.015 0.132L29.436 0.1706L29.859 0.2146L30.283 0.2642L30.708 0.3195L31.135 0.3807L31.562 0.448L31.989 0.5216L32.417 0.6015L32.845 0.6879L33.273 0.7811L33.701 0.8811L34.128 0.9881L34.555 1.1023L34.981 1.2238L35.406 1.3529L35.83 1.4895L36.253 1.634L36.674 1.7864L37.093 1.947L37.511 2.1159L37.926 2.2931L38.339 2.479L38.749 2.6737L39.157 2.8772L39.562 3.0899L39.964 3.3117L40.362 3.543L40.757 3.7838L41.149 4.0343L41.537 4.2947L41.92 4.5651L42.3 4.8457L42.675 5.1367L43.045 5.4381L43.411 5.7502L43.771 6.0731L44.127 6.407L44.477 6.7521L44.821 7.1084L45.16 7.4761L45.493 7.8555L45.82 8.2467L46.14 8.6498L46.454 9.0649L46.762 9.4923L47.062 9.9321L47.355 10.3845L47.641 10.8496L47.92 11.3275L48.01 11.4914L48.095 11.6594L48.177 11.8316L48.254 12.0079L48.327 12.1884L48.397 12.373L48.462 12.5618L48.522 12.7547L48.579 12.9518L48.632 13.153L48.68 13.3584L48.725 13.5679L48.765 13.7815L48.801 13.9993L48.833 14.2213L48.861 14.4474L48.885 14.6777L48.905 14.9121L48.92 15.1506L48.932 15.3933L48.939 15.6402L48.942 15.8912L48.941 16.1463L48.936 16.4056L48.927 16.6691L48.914 16.9367L48.897 17.2084L48.875 17.4843L48.849 17.7643L48.82 18.0485L48.786 18.3369L48.748 18.6293L48.706 18.926L48.659 19.2267L48.609 19.5317L48.555 19.8408L48.496 20.154L52.472 23.3605L47.362 35.188L47.767 35.4035L48.155 35.6244L48.525 35.8503L48.878 36.081L49.212 36.3161L49.529 36.5554L49.829 36.7985L50.111 37.0453L50.376 37.2954L50.623 37.5485L50.852 37.8044L51.065 38.0627L51.26 38.3232L51.437 38.5855L51.598 38.8495L51.741 39.1147L51.867 39.381L51.975 39.648L52.067 39.9154L52.142 40.183L52.199 40.4504L52.24 40.7174L52.263 40.9837L52.27 41.2491L52.26 41.5131L52.232 41.7755L52.188 42.0361L52.128 42.2946L52.05 42.5506L51.956 42.8039L51.845 43.0542L51.717 43.3012L51.573 43.5446L51.412 43.7841L51.235 44.0195L51.041 44.2504L50.831 44.4766L50.604 44.6978L50.361 44.9136L50.101 45.1239L49.826 45.3283L49.534 45.5265L49.225 45.7182L48.901 45.9033L48.56 46.0812L48.203 46.2519L47.83 46.4149L47.441 46.5701L47.036 46.7171L47.051 47.2111L47.038 47.6676L46.997 48.0877L46.931 48.4726L46.84 48.8237L46.726 49.1419L46.589 49.4286L46.432 49.6849L46.254 49.912L46.058 50.1112L45.844 50.2835L45.615 50.4303L45.37 50.5526L45.111 50.6518L44.839 50.729L44.556 50.7853L44.262 50.822L43.96 50.8403L43.649 50.8414L43.332 50.8264L43.009 50.7966L42.681 50.7532L42.351 50.6973L42.018 50.6301L41.685 50.5529L41.352 50.4669L41.02 50.3731L40.692 50.2729L40.367 50.1674L40.047 50.0578L39.734 49.9454L39.428 49.8312L39.131 49.7166L38.844 49.6026L38.567 49.4905L38.304 49.3815L38.053 49.2768L37.817 49.1776L37.597 49.085L37.394 49.0003L37.21 48.9247L37.044 48.8593L36.9 48.8054L36.777 48.7641L36.677 48.7367L36.601 48.7243L36.55 48.7281L36.527 48.7493L36.53 48.7892L36.563 48.8489L36.525 49.1653L36.483 49.4719L36.436 49.7686L36.384 50.0554L36.327 50.3323L36.265 50.5993L36.199 50.8565L36.128 51.1037L36.053 51.3411L35.972 51.5686L35.887 51.7862L35.797 51.994L35.702 52.1918L35.603 52.3798L35.499 52.5579L35.342 52.7704L35.172 52.9592L34.989 53.1244L34.793 53.2659L34.583 53.3838L34.361 53.4779L34.125 53.5484L33.876 53.5952L33.613 53.6183L33.338 53.6178L33.049 53.5935L32.747 53.5456L32.432 53.474L32.103 53.3788L31.762 53.2598L31.407 53.1172M45.754 32.8608L45.849 32.4461L45.911 32.0559L45.94 31.6898L45.935 31.3472L45.896 31.0276L45.822 30.7303L45.713 30.455L45.568 30.201L45.387 29.9677L45.17 29.7547L44.915 29.5614L44.623 29.3873L44.293 29.2317L43.924 29.0943L43.516 28.9743L43.209 28.9106L42.896 28.8776L42.582 28.8741L42.266 28.8987L41.95 28.9501L41.636 29.0271L41.326 29.1282L41.022 29.2523L40.724 29.398L40.434 29.5639L40.154 29.7488L39.886 29.9514L39.631 30.1703L39.391 30.4043L39.167 30.652L38.961 30.9122L38.774 31.1834L38.608 31.4645L38.465 31.7541L38.347 32.0509L38.254 32.3535L38.153 32.8211L38.108 33.2405L38.118 33.6153L38.18 33.9492L38.293 34.2459L38.456 34.5091L38.668 34.7423L38.926 34.9494L39.231 35.134L39.58 35.2997L39.971 35.4502L40.405 35.5892L40.878 35.7204L41.198 35.7903L41.518 35.8333L41.837 35.8503L42.152 35.8419L42.463 35.8089L42.768 35.752L43.066 35.672L43.357 35.5696L43.638 35.4455L43.908 35.3005L44.167 35.1353L44.412 34.9506L44.643 34.7472L44.859 34.5258L45.058 34.2871L45.238 34.032L45.399 33.761L45.54 33.475L45.658 33.1747L45.754 32.8608M34.618 47.6443L34.366 47.1517L34.15 46.7345L33.959 46.3923L33.779 46.1244L33.595 45.9305L33.395 45.8099L33.166 45.7621L32.893 45.7866L32.565 45.8829L32.167 46.0504L31.685 46.2887L31.42 46.4376L31.163 46.6215L30.918 46.8357L30.687 47.0753L30.471 47.3357L30.274 47.612L30.097 47.8996L29.943 48.1935L29.814 48.4892L29.712 48.7817L29.64 49.0664L29.6 49.3385L29.594 49.5932L29.624 49.8257L29.693 50.0314L29.803 50.2053L29.956 50.3429L30.155 50.4392L30.401 50.4896L30.697 50.4893L31.046 50.4335L31.449 50.3174L31.91 50.1363L32.429 49.8855L32.97 49.6233L33.42 49.4282L33.787 49.2641L34.077 49.0949L34.298 48.8844L34.457 48.5966L34.561 48.1952L34.618 47.6443" sodipodi:nodetypes="cccccccccccccccccccccccccccccccccccccccccccccccccccccccccccccccccccccccccccccccccccccccccccccccccccccccccccccccccccccccccccccccccccccccccccccccccccccccccccccccccccccccccccccccccccccccccccccccccccccccccccccccccccccccccccccccccccccccccccccccccccccccccccccccccccccccccccccccccccccccccccccccccccccccccccccccccccccccccccccccccccccccccccccccccccccccccccccccccccccccccccccccccccccccccccccccccccccccccccccccccccccccccccccccccccccccccccccccccccccccccccccccccccccccccccccccccccccccccccccccccccccccccccccccccccccccccccccccccccccccccccccccccccccccc"/><path id="shape55" transform="matrix(1.04207078332144 -0.143144248118077 0.143144248118077 1.04207078332144 56.5814866836386 50.5188549724453)" fill="#ffffff" fill-rule="evenodd" stroke="#000000" stroke-width="0.48" stroke-linecap="square" stroke-linejoin="bevel" d="M8.85061 0.284331L0 0L3.64537 7.55792L6.0949 6.64651L3.67178 2.70004L8.59346 3.54863Z" sodipodi:nodetypes="ccccccc"/><path id="shape56" transform="matrix(1.05185635579267 0 0 1.05185635579267 41.9365294890681 168.283799291107)" fill="#ffffff" fill-rule="evenodd" stroke="#000000" stroke-width="0.48" stroke-linecap="square" stroke-linejoin="bevel" d="M24.4033 9.53008C24.1822 -1.84847 15.3896 -0.736242 11.4617 1.3096C4.76347 0.515664 -0.887934 1.53883 0.116139 11.0425C1.1509 20.8367 8.21051 22.9308 14.2335 21.6907C20.589 20.3822 24.5589 17.5434 24.4033 9.53008Z" sodipodi:nodetypes="ccsss"/><path id="shape0362" transform="matrix(0.719199128895425 0.0101176409122508 0.00798243533037872 -0.793624327540944 92.4808448788892 56.9148167344925)" fill="#ffffff" stroke="#000000" stroke-width="0.48" stroke-linecap="square" stroke-linejoin="bevel" d="M3.36621 0.734934C2.14015 -1.30871 -1.32007 1.43865 0.53657 2.57899C3.36475 4.31607 3.39202 5.80008 4.10853 6.25169C5.09681 6.87461 6.96152 4.65483 6.23466 4.22829C4.82723 3.40237 4.42334 2.497 3.36621 0.734934Z" sodipodi:nodetypes="cssss"/><path id="shape0292" transform="matrix(0.680751415934369 -0.451091893464674 0.409962597430827 0.75194688140178 81.577227035904 46.1681427662663)" fill="#ffffff" stroke="#000000" stroke-width="0.48" stroke-linecap="square" stroke-linejoin="bevel" d="M3.79437 0.530564C2.62789 -1.56949 -1.95586 3.17243 0.948578 4.21009C5.83669 5.95644 9.61906 10.1746 9.85866 10.3538C11.4324 11.5318 13.7355 7.74042 12.0964 7.39258C11.6892 7.30617 5.12414 2.9246 3.79437 0.530564Z" sodipodi:nodetypes="cssss"/><path id="shape0342" transform="matrix(0.648286393142502 -0.505906688080804 0.459583043698479 0.716216749144084 93.0965585222972 46.8837522798001)" fill="#ffffff" stroke="#000000" stroke-width="0.48" stroke-linecap="square" stroke-linejoin="bevel" d="M3.21824 0.852929C1.71145 -1.76943 -1.26334 2.42 0.588818 3.19819C3.70596 4.50786 4.20431 2.56906 3.21824 0.852929Z" sodipodi:nodetypes="ccs"/><path id="shape0402" transform="matrix(0.43196968018175 0.635397868454104 -0.575072096947544 0.475623899708859 84.7674668482504 42.3156429988549)" fill="#ffffff" stroke="#000000" stroke-width="0.48" stroke-linecap="square" stroke-linejoin="bevel" d="M2.83092 0.283435C2.15241 -0.380234 0.380684 0.193983 0.0240675 1.25555C-0.256766 2.09154 1.98793 3.72144 3.22126 4.09223C4.18611 4.38233 4.68218 4.25554 4.61855 3.35926C4.57795 2.78743 3.78788 1.21947 2.83092 0.283435Z" sodipodi:nodetypes="cssss"/><path id="shape0232" transform="matrix(-0.670698531932464 0.285398587799352 0.259748340798568 0.740605287108064 89.4089759693604 34.4796000664499)" fill="#ffffff" stroke="#000000" stroke-width="0.48" stroke-linecap="square" stroke-linejoin="bevel" d="M2.88421 0.370999C1.2575 -1.55207 -1.69866 4.6292 1.26652 4.58425C5.36423 4.52215 7.31567 7.78571 7.95393 8.98286C9.26179 11.4359 12.2715 7.08832 10.5769 6.57124C10.1648 6.44552 4.32284 2.07173 2.88421 0.370999Z" sodipodi:nodetypes="cssss"/><path id="shape342" transform="matrix(-0.718598385105655 -0.0348351514743736 -0.0303658065514335 0.792928154016516 84.778055643822 47.0644892617142)" fill="#ffffff" fill-rule="evenodd" stroke="#000000" stroke-width="0.48" stroke-linecap="square" stroke-linejoin="bevel" d="M1.77234 0.32126C1.51488 -0.287962 0.124962 0.0125795 0.0105463 0.858209C-0.0735696 1.4799 0.359001 3.51697 0.82655 3.55935C1.53671 3.62372 2.0689 1.023 1.77234 0.32126Z" sodipodi:nodetypes="csss"/><path id="shape202" transform="matrix(-0.340878682378642 -0.69949385862574 -0.633354037639353 0.374993906616328 109.594005401909 44.4448805439921)" fill="#ffffff" fill-rule="evenodd" stroke="#000000" stroke-width="0.48" stroke-linecap="square" stroke-linejoin="bevel" d="M3.75576 0L0 2.81444C2.73655 7.5261 1.99682 9.23059 2.98374 13.3222C5.47096 13.6518 10.6259 12.53 11.2159 9.91837C11.5262 8.54478 8.6889 3.58254 3.75576 0Z" sodipodi:nodetypes="cccsc"/><path id="shape232" transform="matrix(-0.340878682378642 -0.69949385862574 -0.633354037639353 0.374993906616328 102.890359540337 42.1870842330264)" fill="#ffffff" fill-rule="evenodd" stroke="#000000" stroke-width="0.48" stroke-linecap="square" stroke-linejoin="bevel" d="M3.11033 2.24389L0 0C0.172986 1.68198 1.42676 5.65819 1.98411 5.81966C3.83622 6.35622 5.08119 4.38057 4.81398 4.15287C4.24804 3.67064 4.86151 3.65143 3.11033 2.24389Z" sodipodi:nodetypes="ccssc"/><path id="shape242" transform="matrix(-0.361118689651441 -0.687041783718736 -0.622036096282759 0.397348305242489 107.634308294692 41.067806296222)" fill="#ffffff" fill-rule="evenodd" stroke="#000000" stroke-width="0.48" stroke-linecap="square" stroke-linejoin="bevel" d="M0.800912 0.000577138C-2.29267 -0.0714555 4.39174 6.6158 7.00844 10.805C7.62826 11.7972 9.06283 9.17045 8.52481 7.93637C7.67599 5.98944 4.15177 0.0785998 0.800912 0.000577138Z" sodipodi:nodetypes="csss"/><path id="shape272" transform="matrix(-0.340878682378642 -0.69949385862574 -0.633354037639353 0.374993906616328 109.470027620483 47.7885937885183)" fill="#ffffff" fill-rule="evenodd" stroke="#000000" stroke-width="0.48" stroke-linecap="square" stroke-linejoin="bevel" d="M2.47829 1.50047e-05C1.34034 -0.013412 -0.107611 8.98893 0.00632776 9.47472C0.648697 12.2135 6.8913 15.9097 5.89054 10.6525C5.85552 10.4685 4.31089 0.0216383 2.47829 1.50047e-05Z" sodipodi:nodetypes="csss"/><path id="shape282" transform="matrix(-0.340878682378642 -0.69949385862574 -0.633354037639353 0.374993906616328 103.669262820411 45.9936026085909)" fill="#ffffff" fill-rule="evenodd" stroke="#000000" stroke-width="0.48" stroke-linecap="square" stroke-linejoin="bevel" d="M3.9203 0.0561163C3.14371 -0.474014 -0.88761 2.85392 0.178172 5.73529C0.357766 6.22083 3.98803 5.27585 5.49738 4.89857C5.51393 4.89444 5.01691 0.804706 3.9203 0.0561163Z" sodipodi:nodetypes="csss"/><path id="shape0242" transform="matrix(-0.669375472565011 -0.338564950642479 -0.277786429471455 0.712314626410925 99.638763643125 39.1114635774768)" fill="#ffffff" stroke="#000000" stroke-width="0.48" stroke-linecap="square" stroke-linejoin="bevel" d="M4.39206 0.772954C2.84165 -1.87997 -2.84968 3.0358 1.77715 4.42443C9.52471 6.74967 15.6622 14.1958 16.0735 14.41C18.7299 15.7931 21.3916 11.5624 19.3992 10.1154C18.909 9.75936 6.2092 3.88229 4.39206 0.772954Z" sodipodi:nodetypes="cssss"/><path id="shape0252" transform="matrix(-0.648029457651465 -0.374079783715838 -0.318233155969399 0.697206111483125 100.536442918804 43.0651560691444)" fill="#ffffff" stroke="#000000" stroke-width="0.48" stroke-linecap="square" stroke-linejoin="bevel" d="M4.60724 0.788353C2.04978 -1.9648 -2.57832 3.28643 1.82295 4.43983C10.1189 6.61388 16.6074 14.2112 17.0453 14.4254C19.8738 15.8085 22.7079 11.5778 20.5864 10.1308C20.0645 9.77476 7.12813 3.50215 4.60724 0.788353Z" sodipodi:nodetypes="cssss"/><path id="shape0302" transform="matrix(0.680751415934369 -0.451091893464674 0.409962597430827 0.75194688140178 81.9446063773652 50.2646259142694)" fill="#ffffff" stroke="#000000" stroke-width="0.48" stroke-linecap="square" stroke-linejoin="bevel" d="M3.42638 0.494542C2.37303 -1.46293 -1.76618 2.95704 0.856585 3.92424C5.27063 5.55202 8.68618 9.48379 8.90254 9.65082C10.3237 10.7488 12.4034 7.21488 10.9233 6.89066C10.5556 6.81011 4.62719 2.72603 3.42638 0.494542Z" sodipodi:nodetypes="cssss"/><path id="shape0322" transform="matrix(0.450482078174334 0.619551880407616 0.560722889427475 -0.496041415954135 86.2690556480252 53.1200971898053)" fill="#ffffff" stroke="#000000" stroke-width="0.48" stroke-linecap="square" stroke-linejoin="bevel" d="M3.23687 0.504161C2.13901 -1.39582 -1.64785 2.6267 0.81942 3.46038C4.97178 4.86343 8.2041 8.22846 8.38837 8.39636C9.42884 9.34445 11.4921 6.2978 10.2893 6.01726C9.94575 5.93712 4.35286 2.43551 3.23687 0.504161Z" sodipodi:nodetypes="cssss"/><path id="shape0262" transform="matrix(-0.638940903467699 -0.385559272337911 -0.333553992597919 0.692160810773393 99.4132995872381 46.4552863767664)" fill="#ffffff" stroke="#000000" stroke-width="0.48" stroke-linecap="square" stroke-linejoin="bevel" d="M3.73738 0.816396C1.54837 -1.75987 -2.10548 2.4613 1.56166 3.84285C8.47553 6.44757 11.8242 11.8167 14.3274 13.1418C16.9206 14.5146 19.3972 9.94457 16.8253 9.04685C16.2992 8.86319 5.89509 3.35585 3.73738 0.816396Z" sodipodi:nodetypes="cssss"/><path id="shape0352" transform="matrix(0.467608146666704 -0.67643140505859 0.652509616826144 0.54627301393999 90.901815626093 52.4380164434579)" fill="#ffffff" stroke="#000000" stroke-width="0.48" stroke-linecap="square" stroke-linejoin="bevel" d="M2.57373 0.54266C1.36339 -1.12179 -1.03914 1.52714 0.497661 2.02981C3.07221 2.87192 3.43225 4.15614 4.03069 4.45657C4.85613 4.87097 6.31188 3.52395 5.7048 3.2402C4.52927 2.69076 3.43391 1.72555 2.57373 0.54266Z" sodipodi:nodetypes="cssss"/><path id="shape0272" transform="matrix(0.658593531483295 0.320238067010222 0.289128553470553 -0.726191036668575 86.7643405356291 52.6890692895421)" fill="#ffffff" stroke="#000000" stroke-width="0.48" stroke-linecap="square" stroke-linejoin="bevel" d="M3.54011 0.695326C1.57129 -1.71573 -1.97637 2.83335 1.39667 3.89309C7.35103 5.76382 11.0971 11.2461 11.5104 11.3357C14.2251 11.924 15.6641 9.43974 13.6571 8.58716C13.1889 8.3883 5.48078 3.07192 3.54011 0.695326Z" sodipodi:nodetypes="cssss"/>
</svg>
