<?xml version="1.0" standalone="no"?>
<!DOCTYPE svg PUBLIC "-//W3C//DTD SVG 20010904//EN" "http://www.w3.org/TR/2001/REC-SVG-20010904/DTD/svg10.dtd">
<!-- Created using Krita: https://krita.org -->
<svg xmlns="http://www.w3.org/2000/svg" 
    xmlns:xlink="http://www.w3.org/1999/xlink"
    xmlns:krita="http://krita.org/namespaces/svg/krita"
    xmlns:sodipodi="http://sodipodi.sourceforge.net/DTD/sodipodi-0.dtd"
    width="133.92pt"
    height="69.12pt"
    viewBox="0 0 133.92 69.12">
<defs/>
<path id="shape0" transform="translate(10.0381899236756, 10.581564886189)" fill="#ff7f00" fill-rule="evenodd" stroke-opacity="0" stroke="#000000" stroke-width="0" stroke-linecap="square" stroke-linejoin="bevel" d="M0 20.9984L4.6268 20.6665L7.93708 10.6668L9.1553 21.0011L13.3985 20.2619L16.2899 0.33901L11.5969 0.564288L11.1394 8.77927L8.42283 0.835496L5.05344 8.98486L5.14339 0C3.54394 0.11592 1.88088 0.00546791 0.281425 0.121388" sodipodi:nodetypes="cccccccccccc"/><path id="shape1" transform="translate(25.7438311067113, 10.9054594807836)" fill="#ff7f00" fill-rule="evenodd" stroke-opacity="0" stroke="#000000" stroke-width="0" stroke-linecap="square" stroke-linejoin="bevel" d="M1.29275 0L0 20.7277L4.71354 20.4347L4.9063 11.6751L8.90279 11.8369L8.489 20.5921L12.925 20.8043L14.2511 0.336823L9.40653 0.332449L9.13924 8.45119L5.61307 8.94331L6.34555 0.205593L1.29275 0" sodipodi:nodetypes="ccccccccccccc"/><path id="shape2" transform="translate(39.9538547674256, 11.1788547510538)" fill="#ff7f00" fill-rule="evenodd" stroke-opacity="0" stroke="#000000" stroke-width="0" stroke-linecap="square" stroke-linejoin="bevel" d="M3.70093 0L9.78176 0.317139L11.5037 20.0781L7.00606 19.9775L5.76471 11.511L4.02476 19.9688L0 19.96" sodipodi:nodetypes="ccccccc"/><path id="shape3" transform="translate(50.9723284281399, 10.8642317780809)" fill="#ff7f00" fill-rule="evenodd" stroke-opacity="0" stroke="#000000" stroke-width="0" stroke-linecap="square" stroke-linejoin="bevel" d="M0.0334112 0.080925L0 4.55805L3.78317 4.42682L3.49532 20.3319L7.37102 20.2334L8.20373 4.464L13.4004 4.35027L12.9301 0L0.0334112 0.080925" sodipodi:nodetypes="ccccccccc"/><path id="shape4" transform="matrix(0.927359303388998 0.374172049220505 -0.374172049220505 0.927359303388998 67.3058367241311 10.6913290781497)" fill="#ff7f00" fill-rule="evenodd" stroke-opacity="0" stroke="#000000" stroke-width="0" stroke-linecap="square" stroke-linejoin="bevel" d="M0 0L0.367964 5.33945L3.46833 0.0829476L0 0" sodipodi:nodetypes="cccc"/><path id="shape5" transform="matrix(0.904523547081046 0.426423677550774 -0.426423677550774 0.904523547081046 68.9821233333571 10.2119714831459)" fill="#ff7f00" fill-rule="evenodd" stroke-opacity="0" stroke="#000000" stroke-width="0" stroke-linecap="square" stroke-linejoin="bevel" d="M6.31985 0L0.493457 6.49806L3.25502 12.1912L9.01652 14.2187L6.68737 17.1736L2.64205 14.8957L0 18.4072L7.80279 21.9635L14.4442 13.2494L4.5799 8.45776C3.98364 7.78958 6.28971 5.32589 5.69345 4.65771L8.00583 7.16296L11.0103 6.3209" sodipodi:nodetypes="ccccccccccccc"/><path id="shape6" transform="translate(10.0805947227826, 32.0352844807836)" fill="#ff7f00" fill-rule="evenodd" stroke-opacity="0" stroke="#000000" stroke-width="0" stroke-linecap="square" stroke-linejoin="bevel" d="M0 19.8715L4.40899 19.8376L4.85104 0L0.0314836 0.39697" sodipodi:nodetypes="cccc"/><path id="shape7" transform="translate(16.3220565531398, 31.7072101564593)" fill="#ff7f00" fill-rule="evenodd" stroke-opacity="0" stroke="#000000" stroke-width="0" stroke-linecap="square" stroke-linejoin="bevel" d="M0.490887 0.441807L0 20.2837L3.2563 20.1766L3.2049 13.8491L6.2556 20.1656L11.424 19.7435L11.6656 0L7.97756 0.557726L7.05233 12.5062L3.93224 0.378379L0.490887 0.441807" sodipodi:nodetypes="ccccccccccc"/><path id="shape8" transform="translate(34.7925369102826, 32.2043142105133)" fill="#ff7f00" fill-rule="evenodd" stroke-opacity="0" stroke="#000000" stroke-width="0" stroke-linecap="square" stroke-linejoin="bevel" d="M0 19.2908L4.70069 19.8048L4.95513 10.8024L7.30162 20.3537L11.2056 10.9992L11.1799 20.2837L15.4951 20.03L15.7932 0.0262459L11.4138 0.496486L8.4633 10.2381L6.54088 0L2.24883 0.139978" sodipodi:nodetypes="cccccccccccc"/><path id="shape9" transform="translate(51.5961657049255, 31.769591913216)" fill="#ff7f00" fill-rule="evenodd" stroke-opacity="0" stroke="#000000" stroke-width="0" stroke-linecap="square" stroke-linejoin="bevel" d="M0 0.325887L5.18259 8.60648L1.02932 18.6849L5.5167 19.7654L13.3632 0.912047L8.53141 0L6.82359 4.78989L3.90782 0.155289Z" sodipodi:nodetypes="ccccccccc"/><path id="shape10" transform="translate(67.3222708388541, 33.2062290753783)" fill="#ff7f00" fill-rule="evenodd" stroke-opacity="0" stroke="#000000" stroke-width="0" stroke-linecap="square" stroke-linejoin="bevel" d="M1.25934 0L0 19.3411L12.3184 13.626L7.41214 7.90878L11.2878 1.71036L1.25934 0" sodipodi:nodetypes="cccccc"/><path id="shape11" transform="translate(79.6407087852831, 32.3926047510539)" fill="#ff7f00" fill-rule="evenodd" stroke-opacity="0" stroke="#000000" stroke-width="0" stroke-linecap="square" stroke-linejoin="bevel" d="M4.01191 0.190283L0 19.5357L4.88188 19.6538L6.43936 8.83285L8.09835 19.9272L11.7299 19.6385L10.2007 0L4.01191 0.190283" sodipodi:nodetypes="cccccccc"/><path id="shape12" transform="translate(92.3575105709971, 32.0317229942971)" fill="#ff7f00" fill-rule="evenodd" stroke-opacity="0" stroke="#000000" stroke-width="0" stroke-linecap="square" stroke-linejoin="bevel" d="M7.07803 0L0 5.6057L0.14778 16.5218L9.58643 21.2111L13.8528 9.82036L6.87242 9.39167L6.61798 12.2853L9.21891 12.2087L7.34789 15.5157L3.20747 10.2797L7.06775 4.82925L10.5168 5.70849L13.1332 3.70724" sodipodi:nodetypes="ccccccccccccc"/><path id="shape13" transform="matrix(0.454076514551934 0.890962692222511 -0.890962692222511 0.454076514551934 122.779465226633 39.9090684187114)" fill="#ff7f00" fill-rule="evenodd" stroke-opacity="0" stroke="#000000" stroke-width="0" stroke-linecap="square" stroke-linejoin="bevel" d="M0 4.25184L6.36354 0L11.9175 6.71021L4.38714 13.9235L4.09672 16.0735L0.789017 15.6579L0.704204 11.9528L7.90688 6.51993L6.30186 4.41151L2.49299 6.56149L0 4.25184" sodipodi:nodetypes="ccccccccccc"/><ellipse id="shape14" transform="matrix(0.454076514551934 0.890962692222511 -0.890962692222511 0.454076514551934 107.326287643261 48.8501023855878)" rx="1.8" ry="1.92" cx="1.8" cy="1.92" fill="#ff7f00" fill-rule="evenodd" stroke-opacity="0" stroke="#000000" stroke-width="0" stroke-linecap="square" stroke-linejoin="bevel"/><path id="shape15" transform="translate(8.88164974510416, 9.49891961591874)" fill="none" stroke="#000000" stroke-width="0.72" stroke-linecap="square" stroke-linejoin="bevel" d="M0 20.9984L4.6268 20.6665L7.93708 10.6668L9.1553 21.0011L13.3985 20.2619L16.2899 0.33901L11.5969 0.564288L11.1394 8.77927L8.42283 0.835496L5.05344 8.98486L5.14339 0C3.54394 0.11592 1.88088 0.00546791 0.281425 0.121388Z" sodipodi:nodetypes="ccccccccccccc"/><path id="shape16" transform="translate(24.5872909281399, 9.82281421051334)" fill="none" stroke="#000000" stroke-width="0.72" stroke-linecap="square" stroke-linejoin="bevel" d="M1.29275 0L0 20.7277L4.71354 20.4347L4.9063 11.6751L8.90279 11.8369L8.489 20.5921L12.925 20.8043L14.2511 0.336823L9.40653 0.332449L9.13924 8.45119L5.61307 8.94331L6.34555 0.205593L1.29275 0" sodipodi:nodetypes="ccccccccccccc"/><path id="shape17" transform="translate(38.7973145888542, 10.0962094807836)" fill="none" stroke="#000000" stroke-width="0.72" stroke-linecap="square" stroke-linejoin="bevel" d="M3.70093 0L9.78176 0.317139L11.5037 20.0781L7.00606 19.9775L5.76471 11.511L4.02476 19.9688L0 19.96Z" sodipodi:nodetypes="cccccccc"/><path id="shape18" transform="translate(49.8157882495685, 9.78158650781065)" fill="none" stroke="#000000" stroke-width="0.72" stroke-linecap="square" stroke-linejoin="bevel" d="M0.0334112 0.080925L0 4.55805L3.78317 4.42682L3.49532 20.3319L7.37102 20.2334L8.20373 4.464L13.4004 4.35027L12.9301 0L0.0334112 0.080925" sodipodi:nodetypes="ccccccccc"/><path id="shape19" transform="matrix(0.927359303388998 0.374172049220505 -0.374172049220505 0.927359303388998 66.1492965455594 9.60868380787945)" fill="none" stroke="#000000" stroke-width="0.72" stroke-linecap="square" stroke-linejoin="bevel" d="M0 0L0.367964 5.33945L3.46833 0.0829476L0 0" sodipodi:nodetypes="cccc"/><path id="shape20" transform="matrix(0.904523547081046 0.426423677550774 -0.426423677550774 0.904523547081046 67.8255831547861 9.12932621287575)" fill="none" stroke="#000000" stroke-width="0.72" stroke-linecap="square" stroke-linejoin="bevel" d="M6.31985 0L0.493457 6.49806L3.25502 12.1912L9.01652 14.2187L6.68737 17.1736L2.64205 14.8957L0 18.4072L7.80279 21.9635L14.4442 13.2494L4.5799 8.45776C3.98364 7.78958 6.28971 5.32589 5.69345 4.65771L8.00583 7.16296L11.0103 6.3209Z" sodipodi:nodetypes="cccccccccccccc"/><path id="shape21" transform="translate(8.92405454421116, 30.9526392105133)" fill="none" stroke="#000000" stroke-width="0.72" stroke-linecap="square" stroke-linejoin="bevel" d="M0 19.8715L4.40899 19.8376L4.85104 0L0.0314836 0.39697Z" sodipodi:nodetypes="ccccc"/><path id="shape22" transform="translate(15.1655163745684, 30.624564886189)" fill="none" stroke="#000000" stroke-width="0.72" stroke-linecap="square" stroke-linejoin="bevel" d="M0.490887 0.441807L0 20.2837L3.2563 20.1766L3.2049 13.8491L6.2556 20.1656L11.424 19.7435L11.6656 0L7.97756 0.557726L7.05233 12.5062L3.93224 0.378379L0.490887 0.441807" sodipodi:nodetypes="ccccccccccc"/><path id="shape23" transform="translate(33.6359967317112, 31.1216689402431)" fill="none" stroke="#000000" stroke-width="0.72" stroke-linecap="square" stroke-linejoin="bevel" d="M0 19.2908L4.70069 19.8048L4.95513 10.8024L7.30162 20.3537L11.2056 10.9992L11.1799 20.2837L15.4951 20.03L15.7932 0.0262459L11.4138 0.496486L8.4633 10.2381L6.54088 0L2.24883 0.139978Z" sodipodi:nodetypes="ccccccccccccc"/><path id="shape24" transform="translate(50.4396255263541, 30.6869466429458)" fill="none" stroke="#000000" stroke-width="0.72" stroke-linecap="square" stroke-linejoin="bevel" d="M0 0.325887L5.18259 8.60648L1.02932 18.6849L5.5167 19.7654L13.3632 0.912047L8.53141 0L6.82359 4.78989L3.90782 0.155289Z" sodipodi:nodetypes="ccccccccc"/><path id="shape25" transform="translate(66.1657306602827, 32.123583805108)" fill="none" stroke="#000000" stroke-width="0.72" stroke-linecap="square" stroke-linejoin="bevel" d="M1.25934 0L0 19.3411L12.3184 13.626L7.41214 7.90878L11.2878 1.71036L1.25934 0" sodipodi:nodetypes="cccccc"/><path id="shape26" transform="translate(78.4841686067111, 31.3099594807836)" fill="none" stroke="#000000" stroke-width="0.72" stroke-linecap="square" stroke-linejoin="bevel" d="M4.01191 0.190283L0 19.5357L4.88188 19.6538L6.43936 8.83285L8.09835 19.9272L11.7299 19.6385L10.2007 0L4.01191 0.190283" sodipodi:nodetypes="cccccccc"/><path id="shape27" transform="translate(91.200970392425, 30.9490777240269)" fill="none" stroke="#000000" stroke-width="0.72" stroke-linecap="square" stroke-linejoin="bevel" d="M7.07803 0L0 5.6057L0.14778 16.5218L9.58643 21.2111L13.8528 9.82036L6.87242 9.39167L6.61798 12.2853L9.21891 12.2087L7.34789 15.5157L3.20747 10.2797L7.06775 4.82925L10.5168 5.70849L13.1332 3.70724Z" sodipodi:nodetypes="cccccccccccccc"/><path id="shape28" transform="matrix(0.454076514551934 0.890962692222511 -0.890962692222511 0.454076514551934 121.622925048062 38.8264231484411)" fill="none" stroke="#000000" stroke-width="0.72" stroke-linecap="square" stroke-linejoin="bevel" d="M0 4.25184L6.36354 0L11.9175 6.71021L4.38714 13.9235L4.09672 16.0735L0.789017 15.6579L0.704204 11.9528L7.90688 6.51993L6.30186 4.41151L2.49299 6.56149L0 4.25184" sodipodi:nodetypes="ccccccccccc"/><ellipse id="shape29" transform="matrix(0.454076514551934 0.890962692222511 -0.890962692222511 0.454076514551934 106.16974746469 47.7674571153174)" rx="1.8" ry="1.92" cx="1.8" cy="1.92" fill="none" stroke="#000000" stroke-width="0.72" stroke-linecap="square" stroke-linejoin="bevel"/>
</svg>
